<svg width="136" height="34" viewBox="0 0 136 34" fill="none" xmlns="http://www.w3.org/2000/svg">
<path d="M6.05538 33V8.07L0.880378 9.285V4.875L8.48538 1.5H12.0404V33H6.05538ZM31.0631 33.54C28.1531 33.54 25.6631 32.865 23.5931 31.515C21.5231 30.135 19.9181 28.23 18.7781 25.8C17.6681 23.34 17.1131 20.49 17.1131 17.25C17.1131 14.04 17.6681 11.205 18.7781 8.745C19.9181 6.285 21.5231 4.38 23.5931 3.03C25.6631 1.65 28.1531 0.959999 31.0631 0.959999C33.9731 0.959999 36.4631 1.65 38.5331 3.03C40.6031 4.38 42.1931 6.285 43.3031 8.745C44.4431 11.205 45.0131 14.04 45.0131 17.25C45.0131 20.49 44.4431 23.34 43.3031 25.8C42.1931 28.23 40.6031 30.135 38.5331 31.515C36.4631 32.865 33.9731 33.54 31.0631 33.54ZM31.0631 28.365C33.4331 28.365 35.3681 27.375 36.8681 25.395C38.3681 23.415 39.1181 20.7 39.1181 17.25C39.1181 13.8 38.3681 11.085 36.8681 9.105C35.3681 7.125 33.4331 6.135 31.0631 6.135C28.6631 6.135 26.7131 7.125 25.2131 9.105C23.7431 11.085 23.0081 13.8 23.0081 17.25C23.0081 20.7 23.7431 23.415 25.2131 25.395C26.7131 27.375 28.6631 28.365 31.0631 28.365ZM63.0113 33.54C60.1013 33.54 57.6113 32.865 55.5413 31.515C53.4713 30.135 51.8663 28.23 50.7263 25.8C49.6163 23.34 49.0613 20.49 49.0613 17.25C49.0613 14.04 49.6163 11.205 50.7263 8.745C51.8663 6.285 53.4713 4.38 55.5413 3.03C57.6113 1.65 60.1013 0.959999 63.0113 0.959999C65.9213 0.959999 68.4113 1.65 70.4813 3.03C72.5513 4.38 74.1413 6.285 75.2513 8.745C76.3913 11.205 76.9613 14.04 76.9613 17.25C76.9613 20.49 76.3913 23.34 75.2513 25.8C74.1413 28.23 72.5513 30.135 70.4813 31.515C68.4113 32.865 65.9213 33.54 63.0113 33.54ZM63.0113 28.365C65.3813 28.365 67.3163 27.375 68.8163 25.395C70.3163 23.415 71.0663 20.7 71.0663 17.25C71.0663 13.8 70.3163 11.085 68.8163 9.105C67.3163 7.125 65.3813 6.135 63.0113 6.135C60.6113 6.135 58.6613 7.125 57.1613 9.105C55.6913 11.085 54.9563 13.8 54.9563 17.25C54.9563 20.7 55.6913 23.415 57.1613 25.395C58.6613 27.375 60.6113 28.365 63.0113 28.365ZM94.9596 33.54C92.0496 33.54 89.5596 32.865 87.4896 31.515C85.4196 30.135 83.8146 28.23 82.6746 25.8C81.5646 23.34 81.0096 20.49 81.0096 17.25C81.0096 14.04 81.5646 11.205 82.6746 8.745C83.8146 6.285 85.4196 4.38 87.4896 3.03C89.5596 1.65 92.0496 0.959999 94.9596 0.959999C97.8696 0.959999 100.36 1.65 102.43 3.03C104.5 4.38 106.09 6.285 107.2 8.745C108.34 11.205 108.91 14.04 108.91 17.25C108.91 20.49 108.34 23.34 107.2 25.8C106.09 28.23 104.5 30.135 102.43 31.515C100.36 32.865 97.8696 33.54 94.9596 33.54ZM94.9596 28.365C97.3296 28.365 99.2646 27.375 100.765 25.395C102.265 23.415 103.015 20.7 103.015 17.25C103.015 13.8 102.265 11.085 100.765 9.105C99.2646 7.125 97.3296 6.135 94.9596 6.135C92.5596 6.135 90.6096 7.125 89.1096 9.105C87.6396 11.085 86.9046 13.8 86.9046 17.25C86.9046 20.7 87.6396 23.415 89.1096 25.395C90.6096 27.375 92.5596 28.365 94.9596 28.365Z" fill="white"/>
<path d="M113.453 22.38V17.565H121.913V9.78H126.818V17.565H135.233V22.38H126.818V30.165H121.913V22.38H113.453Z" fill="#DA624E"/>
</svg>
