<svg width="51" height="33" viewBox="0 0 51 33" fill="none" xmlns="http://www.w3.org/2000/svg">
<path d="M12.4085 32.54C10.0985 32.54 8.10347 32.135 6.42347 31.325C4.77347 30.515 3.46847 29.405 2.50847 27.995C1.57847 26.555 1.03847 24.935 0.888467 23.135H6.51347C6.78347 24.425 7.44347 25.505 8.49347 26.375C9.54347 27.215 10.8485 27.635 12.4085 27.635C14.0885 27.635 15.4535 27.02 16.5035 25.79C17.5835 24.56 18.1235 23.03 18.1235 21.2C18.1235 19.31 17.5835 17.81 16.5035 16.7C15.4535 15.59 14.1185 15.035 12.4985 15.035C11.1485 15.035 9.97847 15.365 8.98847 16.025C7.99847 16.685 7.29347 17.51 6.87347 18.5H1.33847L4.03847 0.499998H21.4985V5.54H8.35847L6.91847 12.83C7.57847 12.11 8.47847 11.525 9.61847 11.075C10.7585 10.595 12.0335 10.355 13.4435 10.355C15.6935 10.355 17.5685 10.865 19.0685 11.885C20.5685 12.875 21.7085 14.195 22.4885 15.845C23.2685 17.465 23.6585 19.235 23.6585 21.155C23.6585 23.345 23.1785 25.295 22.2185 27.005C21.2885 28.715 19.9685 30.065 18.2585 31.055C16.5785 32.045 14.6285 32.54 12.4085 32.54Z" fill="white"/>
<path d="M28.4787 21.38V16.565H36.9387V8.78H41.8437V16.565H50.2587V21.38H41.8437V29.165H36.9387V21.38H28.4787Z" fill="#DA624E"/>
</svg>
