<svg width="82" height="34" viewBox="0 0 82 34" fill="none" xmlns="http://www.w3.org/2000/svg">
<path d="M12.1856 33.54C9.87557 33.54 7.88057 33.135 6.20057 32.325C4.55057 31.515 3.24557 30.405 2.28557 28.995C1.35557 27.555 0.815567 25.935 0.665566 24.135H6.29057C6.56057 25.425 7.22057 26.505 8.27057 27.375C9.32057 28.215 10.6256 28.635 12.1856 28.635C13.8656 28.635 15.2306 28.02 16.2806 26.79C17.3606 25.56 17.9006 24.03 17.9006 22.2C17.9006 20.31 17.3606 18.81 16.2806 17.7C15.2306 16.59 13.8956 16.035 12.2756 16.035C10.9256 16.035 9.75557 16.365 8.76557 17.025C7.77557 17.685 7.07057 18.51 6.65057 19.5H1.11557L3.81557 1.5H21.2756V6.54H8.13557L6.69557 13.83C7.35557 13.11 8.25557 12.525 9.39557 12.075C10.5356 11.595 11.8106 11.355 13.2206 11.355C15.4706 11.355 17.3456 11.865 18.8456 12.885C20.3456 13.875 21.4856 15.195 22.2656 16.845C23.0456 18.465 23.4356 20.235 23.4356 22.155C23.4356 24.345 22.9556 26.295 21.9956 28.005C21.0656 29.715 19.7456 31.065 18.0356 32.055C16.3556 33.045 14.4056 33.54 12.1856 33.54ZM41.7108 33.54C38.8008 33.54 36.3108 32.865 34.2408 31.515C32.1708 30.135 30.5658 28.23 29.4258 25.8C28.3158 23.34 27.7608 20.49 27.7608 17.25C27.7608 14.04 28.3158 11.205 29.4258 8.745C30.5658 6.285 32.1708 4.38 34.2408 3.03C36.3108 1.65 38.8008 0.959999 41.7108 0.959999C44.6208 0.959999 47.1108 1.65 49.1808 3.03C51.2508 4.38 52.8408 6.285 53.9508 8.745C55.0908 11.205 55.6608 14.04 55.6608 17.25C55.6608 20.49 55.0908 23.34 53.9508 25.8C52.8408 28.23 51.2508 30.135 49.1808 31.515C47.1108 32.865 44.6208 33.54 41.7108 33.54ZM41.7108 28.365C44.0808 28.365 46.0158 27.375 47.5158 25.395C49.0158 23.415 49.7658 20.7 49.7658 17.25C49.7658 13.8 49.0158 11.085 47.5158 9.105C46.0158 7.125 44.0808 6.135 41.7108 6.135C39.3108 6.135 37.3608 7.125 35.8608 9.105C34.3908 11.085 33.6558 13.8 33.6558 17.25C33.6558 20.7 34.3908 23.415 35.8608 25.395C37.3608 27.375 39.3108 28.365 41.7108 28.365Z" fill="white"/>
<path d="M60.2041 22.38V17.565H68.6641V9.78H73.5691V17.565H81.9841V22.38H73.5691V30.165H68.6641V22.38H60.2041Z" fill="#DA624E"/>
</svg>
