<svg width="115" height="34" viewBox="0 0 115 34" fill="none" xmlns="http://www.w3.org/2000/svg">
<path d="M12.0566 33.54C9.89659 33.54 7.94659 33.165 6.20659 32.415C4.46659 31.635 3.07159 30.54 2.02159 29.13C1.00159 27.72 0.491592 26.085 0.491592 24.225C0.491592 22.305 0.986592 20.625 1.97659 19.185C2.99659 17.745 4.33159 16.71 5.98159 16.08C4.54159 15.45 3.40159 14.55 2.56159 13.38C1.72159 12.18 1.30159 10.845 1.30159 9.375C1.30159 7.875 1.70659 6.495 2.51659 5.235C3.32659 3.945 4.52659 2.91 6.11659 2.13C7.73659 1.35 9.71659 0.959999 12.0566 0.959999C14.3966 0.959999 16.3616 1.35 17.9516 2.13C19.5416 2.91 20.7416 3.945 21.5516 5.235C22.3616 6.495 22.7666 7.875 22.7666 9.375C22.7666 10.815 22.3316 12.15 21.4616 13.38C20.6216 14.58 19.4966 15.48 18.0866 16.08C19.7666 16.71 21.1016 17.745 22.0916 19.185C23.0816 20.625 23.5766 22.305 23.5766 24.225C23.5766 26.085 23.0666 27.72 22.0466 29.13C21.0266 30.54 19.6316 31.635 17.8616 32.415C16.1216 33.165 14.1866 33.54 12.0566 33.54ZM12.0566 14.37C13.6166 14.37 14.8466 13.965 15.7466 13.155C16.6466 12.345 17.0966 11.31 17.0966 10.05C17.0966 8.67 16.6466 7.59 15.7466 6.81C14.8766 6.03 13.6466 5.64 12.0566 5.64C10.4366 5.64 9.19159 6.03 8.32159 6.81C7.45159 7.59 7.01659 8.67 7.01659 10.05C7.01659 11.34 7.45159 12.39 8.32159 13.2C9.22159 13.98 10.4666 14.37 12.0566 14.37ZM12.0566 28.725C13.9766 28.725 15.4316 28.26 16.4216 27.33C17.4116 26.37 17.9066 25.17 17.9066 23.73C17.9066 22.14 17.3816 20.895 16.3316 19.995C15.3116 19.095 13.8866 18.645 12.0566 18.645C10.2266 18.645 8.77159 19.095 7.69159 19.995C6.64159 20.895 6.11659 22.14 6.11659 23.73C6.11659 25.17 6.61159 26.37 7.60159 27.33C8.62159 28.26 10.1066 28.725 12.0566 28.725ZM42.1574 33.54C39.2474 33.54 36.7574 32.865 34.6874 31.515C32.6174 30.135 31.0124 28.23 29.8724 25.8C28.7624 23.34 28.2074 20.49 28.2074 17.25C28.2074 14.04 28.7624 11.205 29.8724 8.745C31.0124 6.285 32.6174 4.38 34.6874 3.03C36.7574 1.65 39.2474 0.959999 42.1574 0.959999C45.0674 0.959999 47.5574 1.65 49.6274 3.03C51.6974 4.38 53.2874 6.285 54.3974 8.745C55.5374 11.205 56.1074 14.04 56.1074 17.25C56.1074 20.49 55.5374 23.34 54.3974 25.8C53.2874 28.23 51.6974 30.135 49.6274 31.515C47.5574 32.865 45.0674 33.54 42.1574 33.54ZM42.1574 28.365C44.5274 28.365 46.4624 27.375 47.9624 25.395C49.4624 23.415 50.2124 20.7 50.2124 17.25C50.2124 13.8 49.4624 11.085 47.9624 9.105C46.4624 7.125 44.5274 6.135 42.1574 6.135C39.7574 6.135 37.8074 7.125 36.3074 9.105C34.8374 11.085 34.1024 13.8 34.1024 17.25C34.1024 20.7 34.8374 23.415 36.3074 25.395C37.8074 27.375 39.7574 28.365 42.1574 28.365ZM74.1056 33.54C71.1956 33.54 68.7056 32.865 66.6356 31.515C64.5656 30.135 62.9606 28.23 61.8206 25.8C60.7106 23.34 60.1556 20.49 60.1556 17.25C60.1556 14.04 60.7106 11.205 61.8206 8.745C62.9606 6.285 64.5656 4.38 66.6356 3.03C68.7056 1.65 71.1956 0.959999 74.1056 0.959999C77.0156 0.959999 79.5056 1.65 81.5756 3.03C83.6456 4.38 85.2356 6.285 86.3456 8.745C87.4856 11.205 88.0556 14.04 88.0556 17.25C88.0556 20.49 87.4856 23.34 86.3456 25.8C85.2356 28.23 83.6456 30.135 81.5756 31.515C79.5056 32.865 77.0156 33.54 74.1056 33.54ZM74.1056 28.365C76.4756 28.365 78.4106 27.375 79.9106 25.395C81.4106 23.415 82.1606 20.7 82.1606 17.25C82.1606 13.8 81.4106 11.085 79.9106 9.105C78.4106 7.125 76.4756 6.135 74.1056 6.135C71.7056 6.135 69.7556 7.125 68.2556 9.105C66.7856 11.085 66.0506 13.8 66.0506 17.25C66.0506 20.7 66.7856 23.415 68.2556 25.395C69.7556 27.375 71.7056 28.365 74.1056 28.365Z" fill="white"/>
<path d="M92.5989 22.38V17.565H101.059V9.78H105.964V17.565H114.379V22.38H105.964V30.165H101.059V22.38H92.5989Z" fill="#DA624E"/>
</svg>
