<svg width="132" height="48" viewBox="0 0 132 48" fill="none" xmlns="http://www.w3.org/2000/svg">
<path d="M59.7025 21.7025C60.0119 21.3495 60.28 20.9412 60.5138 20.4914C60.7407 20.0346 60.9331 19.5502 61.0638 19.0589C61.2013 18.5606 61.2769 18.0416 61.2769 17.5225C61.2769 16.5814 61.0913 15.6817 60.7063 14.8513C60.3213 14.0139 59.8263 13.2735 59.2281 12.6437C58.6231 12.007 57.9425 11.5157 57.1932 11.142C56.4438 10.7751 55.6806 10.5952 54.9175 10.5952H51.3288C50.5863 10.5952 49.9744 10.8375 49.4794 11.308C48.9844 11.7786 48.7506 12.3807 48.7506 13.1143V28.6852C48.7506 29.4118 48.9913 30.0139 49.4519 30.4845C49.9194 30.9551 50.5107 31.1973 51.2325 31.1973C51.975 31.1973 52.5869 30.9551 53.0819 30.4845C53.5769 30.0139 53.8107 29.4118 53.8107 28.6852V24.5537H54.5737L57.695 30.0347C57.9219 30.4015 58.2244 30.6783 58.575 30.872C58.9188 31.0658 59.3038 31.1696 59.6956 31.1627C60.225 31.1627 60.7063 31.0174 61.1256 30.7198C61.5106 30.4637 61.7994 30.1523 61.985 29.7855C62.1706 29.4257 62.2738 29.0312 62.2669 28.6298C62.2669 28.1315 62.1363 27.661 61.8819 27.2181L58.6987 22.5399C59.0631 22.3322 59.3931 22.0623 59.7025 21.7025ZM56.0175 18.6506C55.88 18.9066 55.7287 19.0866 55.5569 19.1973C55.3713 19.3288 55.1512 19.4049 54.9175 19.4188H53.8038V15.7094H54.9175C55.1444 15.7232 55.3575 15.8063 55.5569 15.9309C55.7287 16.0416 55.88 16.2215 56.0175 16.4638C56.155 16.7129 56.2306 17.0658 56.2306 17.5087C56.2306 18.0139 56.155 18.3945 56.0175 18.6506Z" fill="#0E7AFF"/>
<path d="M32.4637 39.5294C32.3125 39.6678 32.1337 39.7232 31.9137 39.7232C31.4875 39.7232 31.1231 39.4256 30.7931 38.8166L29.7137 39.4741C29.9681 39.9862 30.2775 40.3599 30.635 40.5952C30.9925 40.8374 31.4119 40.955 31.8931 40.955C32.5118 40.955 33.0068 40.7751 33.3919 40.4084C33.7768 40.0416 33.9694 39.5779 33.9694 39.0173C33.9694 38.7267 33.9075 38.4637 33.8044 38.2215C33.6943 37.9724 33.5087 37.7232 33.2543 37.4533C33.1512 37.3495 32.8556 37.0865 32.3606 36.6713C31.8312 36.2284 31.515 35.9239 31.4187 35.7855C31.3431 35.6817 31.3087 35.571 31.3087 35.4603C31.3087 35.3495 31.3568 35.2457 31.4737 35.1488C31.5837 35.052 31.7143 35.0104 31.8793 35.0104C32.23 35.0104 32.5669 35.2526 32.9037 35.7163L33.8593 34.8651C33.5018 34.443 33.1787 34.1592 32.8693 34.0001C32.5737 33.8478 32.2506 33.7578 31.9069 33.7578C31.3775 33.7578 30.9443 33.9308 30.5869 34.2699C30.2293 34.6021 30.0506 35.0173 30.0506 35.4879C30.0506 35.8131 30.1606 36.1453 30.3737 36.4706C30.5869 36.8028 31.0612 37.2665 31.8037 37.8754C32.1887 38.1938 32.4431 38.4291 32.5531 38.5882C32.6631 38.7474 32.725 38.8997 32.725 39.0519C32.6906 39.2457 32.615 39.398 32.4637 39.5294Z" fill="#0E7AFF"/>
<path d="M104.466 10.616C101.819 10.616 99.4198 11.6541 97.6324 13.3496H91.981C90.1867 11.6541 87.7869 10.616 85.1469 10.616C79.606 10.616 75.1096 15.1765 75.1096 20.789C75.1096 26.4015 79.606 30.962 85.1469 30.962C87.3541 30.962 89.3893 30.2423 91.0462 29.0243C91.8091 28.4568 91.8712 27.2734 91.2864 26.5122C90.7776 25.8409 89.8636 25.9101 89.0931 26.4707C87.9381 27.3011 86.5567 27.744 85.1469 27.7371C81.3588 27.7371 78.2929 24.6298 78.2929 20.7959C78.2929 16.962 81.3588 13.8478 85.1469 13.8478C87.3679 13.8478 89.3341 14.9205 90.5919 16.5745H99.0345C100.286 14.9136 102.259 13.8409 104.48 13.8409C108.268 13.8409 111.334 16.9482 111.334 20.789C111.334 24.6298 108.268 27.7302 104.48 27.7302C103.022 27.7302 101.606 27.2596 100.437 26.3946C99.6807 25.8271 98.7184 25.8132 98.1274 26.5675C97.6048 27.2388 97.7007 28.3531 98.4574 28.9205C100.134 30.1938 102.218 30.9481 104.473 30.9481C110.014 30.9481 114.51 26.4015 114.517 20.7752C114.496 15.1627 110.007 10.616 104.466 10.616Z" fill="#0E7AFF"/>
<path d="M115.081 40.7888V36.3043L117.954 40.7888H119.199V33.9514H117.913V38.4566L115.026 33.9514H113.795V40.7888H115.081Z" fill="#0E7AFF"/>
<path d="M100.794 34.263C100.251 34.5813 99.8251 35.0174 99.5089 35.5641C99.1927 36.1107 99.0415 36.7128 99.0415 37.3634C99.0415 38.3391 99.3715 39.1765 100.045 39.8893C100.719 40.6022 101.557 40.955 102.575 40.955C103.537 40.955 104.362 40.609 105.043 39.917C105.724 39.2319 106.054 38.3807 106.054 37.391C106.054 36.3806 105.71 35.5225 105.022 34.8305C104.335 34.1384 103.517 33.7786 102.561 33.7786C101.929 33.7786 101.338 33.9447 100.794 34.263ZM104.768 37.3841C104.768 38.0346 104.555 38.5814 104.122 39.0381C103.689 39.481 103.18 39.7094 102.561 39.7094C102.025 39.7094 101.551 39.5364 101.131 39.1973C100.595 38.7613 100.32 38.1592 100.32 37.4049C100.32 36.7267 100.533 36.1592 100.959 35.7232C101.386 35.2872 101.915 35.0658 102.534 35.0658C103.153 35.0658 103.675 35.2872 104.115 35.744C104.555 36.1868 104.768 36.7336 104.768 37.3841Z" fill="#0E7AFF"/>
<path d="M43.1891 34.263C42.6459 34.5813 42.2128 35.0174 41.9034 35.5641C41.5872 36.1107 41.4359 36.7128 41.4359 37.3634C41.4359 38.3391 41.7796 39.1765 42.4396 39.8893C43.1134 40.6022 43.9521 40.955 44.9697 40.955C45.9321 40.955 46.7571 40.609 47.4378 39.917C48.1184 39.2319 48.4622 38.3807 48.4484 37.391C48.4484 36.3806 48.1047 35.5225 47.4171 34.8305C46.7297 34.1384 45.9116 33.7786 44.9559 33.7786C44.3234 33.7786 43.7322 33.9447 43.1891 34.263ZM47.1628 37.3841C47.1628 38.0346 46.9497 38.5814 46.5234 39.0381C46.0971 39.4948 45.5816 39.7094 44.9628 39.7094C44.4266 39.7094 43.9384 39.5364 43.5328 39.1973C42.9965 38.7613 42.7215 38.1592 42.7215 37.4049C42.7215 36.7267 42.9347 36.1592 43.3609 35.7232C43.7871 35.2872 44.3165 35.0658 44.9353 35.0658C45.554 35.0658 46.0766 35.2872 46.5096 35.744C46.9497 36.1868 47.1628 36.7336 47.1628 37.3841Z" fill="#0E7AFF"/>
<path d="M12.1139 26.6089C7.72074 23.7162 3.69197 19.6262 3.69197 19.6262C1.61573 24.2768 0.948853 28.9549 0.948853 28.9549C2.48198 30.1868 4.08385 31.0033 5.73385 31.5016C6.92323 30.8857 9.70074 30.4497 12.932 30.4497C16.4383 30.4497 19.4014 30.9618 20.4051 31.6678C23.1689 30.9964 24.9219 30.1452 24.9219 30.1314L24.5576 28.2628C11.3026 23.4186 2.70197 12.6089 2.70197 12.6089C7.21885 22.4013 20.9001 29.1141 20.9001 29.1141C11.4744 31.647 2.95635 27.7923 2.95635 27.7923C3.32072 24.6573 4.4826 22.3874 4.4826 22.3874C8.32571 24.8926 12.1139 26.6089 12.1139 26.6089Z" fill="#0E7AFF"/>
<path d="M109.319 20.9134C109.319 19.82 108.439 18.9272 107.36 18.9272C106.281 18.9272 105.401 19.82 105.401 20.9134C105.401 22.0068 106.281 22.8996 107.36 22.8996C108.439 22.8996 109.319 22.0068 109.319 20.9134ZM106.576 20.9134C106.576 20.4774 106.927 20.1245 107.36 20.1245C107.793 20.1245 108.143 20.4774 108.143 20.9203C108.143 21.3563 107.793 21.7092 107.36 21.7092C106.927 21.7023 106.576 21.3494 106.576 20.9134Z" fill="#0E7AFF"/>
<path d="M24.1314 25.6125C24.1314 25.6125 22.1721 14.0691 13.1452 6.64355C13.1452 6.64355 8.62834 10.6505 6.43518 14.3321L7.78269 15.7093C7.78269 15.7093 9.49455 12 13.0352 9.14876C13.0352 9.14876 18.7689 14.1038 21.2714 22.2491C21.2714 22.2491 17.4833 21.8201 12.7877 18.6367C12.7877 18.6297 15.9021 22.1592 24.1314 25.6125Z" fill="#0E7AFF"/>
<path d="M14.7195 32.6435L14.8845 33.1349C17.717 32.9964 19.7932 32.5674 19.7932 32.0622C19.7932 31.4463 16.727 30.948 12.9389 30.948C9.15069 30.948 6.08447 31.4463 6.08447 32.0622C6.08447 32.5674 8.15386 32.9964 10.9932 33.1349L11.1582 32.6435C9.18508 32.5605 7.58323 32.3321 7.58323 32.0622C7.58323 31.7162 10.2301 31.4463 12.9389 31.4463C15.6476 31.4463 18.2945 31.7231 18.2945 32.0622C18.2807 32.3321 16.6926 32.5535 14.7195 32.6435Z" fill="#0E7AFF"/>
<path d="M5.36277 38.1245C4.33152 38.1245 3.79527 38.4845 3.51339 38.9066C3.19714 39.3841 3.54777 39.8685 3.54777 39.8685C3.54777 40.4152 7.75529 41.3564 12.9252 41.3564C18.0953 41.3564 22.3097 40.4152 22.3097 39.8616C22.3097 39.8616 22.6534 39.3841 22.3441 38.8997C22.0622 38.4775 21.5259 38.1177 20.4947 38.1177C18.659 38.1177 18.3771 39.1142 18.3771 39.1142C18.3771 37.9723 20.1921 37.6263 20.1921 37.6263C20.1921 35.9723 18.0746 36.8789 18.0746 36.8789C17.0846 34.6713 15.6477 36.1315 15.6477 36.1315L13.9977 32.3183C13.7434 31.8132 12.1071 31.8132 11.8459 32.3183L10.1959 36.1315C10.1959 36.1315 8.75903 34.6644 7.76903 36.8789C7.76903 36.8789 5.65152 35.9793 5.65152 37.6263C5.65152 37.6263 7.46652 37.9792 7.46652 39.1142C7.48027 39.1211 7.21214 38.1245 5.36277 38.1245ZM11.1171 37.128L12.3272 33.6401L12.9321 36.5467L13.5371 33.6401L14.7471 37.128C17.7927 37.128 17.4696 37.8754 17.4696 37.8754C15.5515 37.1972 14.7471 38.1245 14.7471 38.1245C15.8266 38.1245 15.9572 39.1211 15.9572 39.1211C14.7541 38.7128 13.4202 38.6298 12.9321 38.6228C12.4371 38.6298 11.1034 38.7059 9.90712 39.1211C9.90712 39.1211 10.0377 38.1245 11.1171 38.1245C11.1171 38.1245 10.3059 37.1903 8.39465 37.8754C8.39465 37.8754 8.07838 37.128 11.1171 37.128Z" fill="#0E7AFF"/>
<path d="M41.1059 12.0762C40.8653 11.5364 40.5422 11.1488 40.1365 10.9274C39.7309 10.7059 39.2496 10.5952 38.7203 10.5952C38.2253 10.6091 37.7577 10.7613 37.304 11.0174C36.8434 11.2734 36.5203 11.6402 36.3347 12.1108L29.9959 27.6471C29.8446 27.9655 29.7759 28.3184 29.7759 28.6783C29.7759 29.1766 29.9134 29.6195 30.1746 30.0139C30.4359 30.4084 30.814 30.7198 31.2953 30.9274C31.694 31.1004 32.0721 31.1834 32.409 31.1834C32.8971 31.1834 33.3371 31.052 33.729 30.7959C34.1209 30.5398 34.4303 30.1592 34.6296 29.6679L36.0596 26.2008H41.319L42.749 29.6817C42.9347 30.18 43.244 30.5537 43.6496 30.8097C44.069 31.0658 44.5159 31.1973 45.004 31.1973C45.4028 31.1973 45.7671 31.1212 46.0834 30.9759C46.5715 30.7613 46.9496 30.4499 47.204 30.0623C47.4653 29.661 47.6028 29.2112 47.6028 28.7267C47.6028 28.3392 47.5271 27.9931 47.3828 27.661L41.1059 12.0762ZM37.8884 21.8132L38.7134 19.4326L39.5727 21.8132H37.8884Z" fill="#0E7AFF"/>
<path d="M128.577 10.6575C127.834 10.6575 127.215 10.8996 126.727 11.3703C126.232 11.8408 125.998 12.4429 125.998 13.1765V19.8478L121 11.9169C120.794 11.5432 120.498 11.2249 120.12 11.0035C119.742 10.782 119.323 10.6713 118.828 10.6713C118.085 10.6713 117.466 10.9135 116.978 11.3841C116.483 11.8547 116.25 12.4568 116.25 13.1903V28.699C116.25 29.4256 116.476 30.0277 116.951 30.4983C117.418 30.9688 118.017 31.2111 118.732 31.2111C119.474 31.2111 120.092 30.9688 120.581 30.4983C121.076 30.0277 121.31 29.4256 121.31 28.699V21.9931L126.459 30.2422C126.927 30.8858 127.593 31.2111 128.467 31.2111C129.209 31.2111 129.821 30.9688 130.316 30.4983C130.811 30.0277 131.045 29.4256 131.045 28.699V13.1834C131.045 12.4568 130.804 11.8547 130.343 11.3772C129.89 10.8927 129.298 10.6575 128.577 10.6575Z" fill="#0E7AFF"/>
<path d="M99.5365 20.9135C99.5365 22.0069 100.417 22.8996 101.489 22.8996C102.569 22.8996 103.449 22.0069 103.449 20.9135C103.449 19.82 102.569 18.9273 101.489 18.9273C100.41 18.9204 99.5365 19.8131 99.5365 20.9135ZM102.28 20.9135C102.28 21.3494 101.922 21.7024 101.496 21.7024C101.07 21.7024 100.712 21.3494 100.712 20.9065C100.712 20.4636 101.063 20.1107 101.496 20.1176C101.929 20.1176 102.28 20.4775 102.28 20.9135Z" fill="#0E7AFF"/>
<path d="M66.8802 33.9585V38.0346C66.8802 38.8512 66.9558 39.4326 67.1071 39.7717C67.2584 40.1177 67.5265 40.3945 67.884 40.6298C68.2415 40.8582 68.6677 40.9758 69.1627 40.9758C69.534 40.9758 69.864 40.9135 70.139 40.7959C70.4208 40.6783 70.6683 40.4983 70.8884 40.2492C71.1015 40.0001 71.2458 39.744 71.3215 39.4811C71.3971 39.2181 71.4315 38.7336 71.4315 38.0485H71.4383V33.9724H70.1459V38.2284C70.1459 38.6852 70.1115 38.9966 70.0496 39.1627C69.9877 39.3288 69.8709 39.4602 69.7059 39.564C69.534 39.6679 69.3483 39.7163 69.1215 39.7163C68.9084 39.7163 68.7227 39.6748 68.5784 39.5779C68.434 39.4811 68.3171 39.3565 68.2552 39.2042C68.1933 39.0519 68.159 38.7751 68.159 38.4014V33.9793L66.8802 33.9585Z" fill="#0E7AFF"/>
<path d="M81.4479 40.7888V35.2386H82.672V33.9514H78.9453V35.2386H80.1487V40.7888H81.4479Z" fill="#0E7AFF"/>
<path d="M85.1262 25.9861C86.0686 25.9861 86.8384 25.2041 86.8384 24.2491V22.7611H88.0141C89.1207 22.7611 90.0217 21.9792 90.0217 21.0242C90.0217 20.0622 89.1207 19.2871 88.0141 19.2871H86.8384V17.7854C86.8384 16.8235 86.0755 16.0483 85.1262 16.0483C84.1845 16.0483 83.4148 16.8304 83.4148 17.7854V19.2733H82.2391C81.1317 19.2733 80.2314 20.0553 80.2314 21.0103C80.2314 21.9722 81.1317 22.7474 82.2391 22.7474H83.4148V24.2352C83.4148 25.211 84.1845 25.9861 85.1262 25.9861Z" fill="#0E7AFF"/>
<path d="M91.2935 33.9514H90.0149V40.7888H91.2935V33.9514Z" fill="#0E7AFF"/>
<path d="M72.6275 10.5605H64.46C63.745 10.5605 63.14 10.8028 62.6794 11.2733C62.2119 11.744 61.9781 12.346 61.9781 13.0796C61.9781 13.8339 62.2187 14.4499 62.6794 14.9481C63.1469 15.4464 63.7381 15.6955 64.46 15.6955H66.0207V28.6851C66.0207 29.4118 66.2612 30.0139 66.7219 30.4844C67.1894 30.9551 67.7806 31.1972 68.5025 31.1972C69.245 31.1972 69.8569 30.9551 70.3519 30.4844C70.8469 30.0139 71.0806 29.4118 71.0806 28.6851V15.6817H72.6413C73.3632 15.6817 73.9544 15.4394 74.4219 14.9689C74.8894 14.4983 75.1231 13.8962 75.1231 13.1626C75.1231 12.4083 74.8825 11.7924 74.4219 11.2941C73.9406 10.8097 73.3425 10.5605 72.6275 10.5605Z" fill="#0E7AFF"/>
<path d="M104.424 16.1384C103.345 16.1384 102.465 17.0312 102.465 18.1246C102.465 19.218 103.345 20.1108 104.424 20.1108C105.503 20.1108 106.384 19.218 106.384 18.1246C106.384 17.0312 105.503 16.1384 104.424 16.1384ZM104.424 18.9205C103.991 18.9205 103.641 18.5675 103.641 18.1246C103.641 17.6817 103.998 17.3357 104.424 17.3357C104.857 17.3357 105.208 17.6956 105.201 18.1315C105.208 18.5606 104.857 18.9205 104.424 18.9205Z" fill="#0E7AFF"/>
<path d="M104.424 21.7024C103.345 21.7024 102.465 22.5951 102.465 23.6885C102.465 24.782 103.345 25.6747 104.424 25.6747C105.503 25.6747 106.384 24.782 106.384 23.6885C106.384 22.5951 105.503 21.7024 104.424 21.7024ZM104.424 24.4844C103.991 24.4844 103.641 24.1314 103.641 23.6885C103.641 23.2457 103.998 22.8996 104.424 22.8996C104.857 22.8996 105.208 23.2526 105.201 23.6955C105.208 24.1314 104.857 24.4844 104.424 24.4844Z" fill="#0E7AFF"/>
<path d="M129.388 39.5292C129.236 39.6677 129.058 39.723 128.837 39.723C128.418 39.723 128.047 39.4254 127.717 38.8164L126.638 39.4739C126.892 39.986 127.201 40.3597 127.559 40.595C127.916 40.8303 128.336 40.9548 128.817 40.9548C129.436 40.9548 129.931 40.7749 130.316 40.4082C130.701 40.0414 130.893 39.5777 130.893 39.0172C130.893 38.7265 130.831 38.4635 130.728 38.2213C130.619 37.9722 130.433 37.723 130.178 37.4532C130.075 37.3493 129.78 37.0863 129.285 36.6711C128.755 36.2282 128.439 35.9237 128.342 35.7853C128.267 35.6815 128.233 35.5708 128.233 35.4601C128.233 35.3494 128.281 35.2455 128.398 35.1486C128.507 35.0518 128.646 35.0102 128.804 35.0102C129.154 35.0102 129.491 35.2524 129.827 35.7161L130.763 34.8787C130.405 34.4566 130.082 34.1728 129.773 34.0137C129.477 33.8614 129.154 33.7715 128.811 33.7715C128.281 33.7715 127.847 33.9445 127.491 34.2836C127.133 34.6157 126.954 35.031 126.954 35.5016C126.954 35.8268 127.064 36.159 127.277 36.4843C127.491 36.8165 127.965 37.2801 128.707 37.8891C129.092 38.2075 129.339 38.4427 129.457 38.6019C129.573 38.7611 129.629 38.9134 129.629 39.0656C129.608 39.2455 129.532 39.3978 129.388 39.5292Z" fill="#0E7AFF"/>
<path d="M56.1758 33.9514V40.7888H59.3383V39.5431H57.4614V33.9514H56.1758Z" fill="#0E7AFF"/>
</svg>
