<svg width="90" height="90" viewBox="0 0 90 90" fill="none" xmlns="http://www.w3.org/2000/svg">
<circle cx="45" cy="45" r="44.5" fill="black" stroke="black"/>
<path d="M45 54C49.9706 54 54 49.9706 54 45C54 40.0294 49.9706 36 45 36C40.0294 36 36 40.0294 36 45C36 49.9706 40.0294 54 45 54Z" stroke="white" stroke-width="2" stroke-linecap="round" stroke-linejoin="round"/>
<path d="M29.7991 45.5453L27.2004 49.005C27.0155 49.2512 26.9543 49.5689 27.0346 49.8662C27.4505 51.4068 28.0642 52.887 28.8605 54.2699C29.0139 54.5363 29.2813 54.7174 29.5857 54.7609L33.8659 55.3723C34.1156 55.6305 34.3695 55.8844 34.6277 56.1341L35.2391 60.4143C35.2825 60.7182 35.4631 60.9853 35.729 61.1389C37.1117 61.9374 38.5929 62.5516 40.135 62.9658C40.432 63.0455 40.7491 62.9842 40.995 62.7996L44.4389 60.2128C44.8127 60.2322 45.1873 60.2322 45.5611 60.2128L49.005 62.7996C49.2512 62.9845 49.5689 63.0457 49.8662 62.9654C51.4068 62.5495 52.887 61.9358 54.2699 61.1395C54.5363 60.9861 54.7174 60.7187 54.7609 60.4143L55.3721 56.1355C55.5523 55.9601 55.7474 55.7639 55.9125 55.596C55.992 55.5152 56.0663 55.4392 56.1309 55.3728L60.4143 54.7609C60.7182 54.7175 60.9853 54.5369 61.1389 54.271C61.9374 52.8883 62.5516 51.4071 62.9658 49.865C63.0455 49.568 62.9842 49.2509 62.7996 49.005L60.2068 45.5531C60.2143 45.2864 60.2123 45.0005 60.2081 44.7665C60.2061 44.6535 60.2036 44.5475 60.2009 44.4547L62.7996 40.995C62.9845 40.7488 63.0457 40.4311 62.9654 40.1338C62.5495 38.5932 61.9358 37.113 61.1395 35.7301C60.9861 35.4637 60.7187 35.2826 60.4143 35.2391L56.1403 34.6286C55.8923 34.3678 55.636 34.1116 55.3715 33.86L54.7609 29.5857C54.7175 29.2818 54.5369 29.0146 54.271 28.8611C52.8883 28.0626 51.4071 27.4484 49.865 27.0342C49.568 26.9545 49.2509 27.0158 49.005 27.2004L45.5611 29.7872C45.1873 29.7678 44.8127 29.7678 44.4389 29.7872L40.995 27.2004C40.7488 27.0155 40.4311 26.9543 40.1338 27.0346C38.5932 27.4505 37.113 28.0642 35.7301 28.8605C35.4637 29.0139 35.2826 29.2813 35.2391 29.5857L34.6277 33.8659C34.3695 34.1156 34.1156 34.3695 33.8659 34.6277L29.5857 35.2391C29.2818 35.2825 29.0146 35.4631 28.8611 35.729C28.0626 37.1117 27.4484 38.5929 27.0342 40.135C26.9545 40.432 27.0158 40.7491 27.2004 40.995L29.7932 44.4469C29.7857 44.7136 29.7877 44.9995 29.7919 45.2335C29.7939 45.3465 29.7965 45.4525 29.7991 45.5453Z" stroke="white" stroke-width="2" stroke-linecap="round" stroke-linejoin="round"/>
</svg>
