<svg width="133" height="46" viewBox="0 0 133 46" fill="none" xmlns="http://www.w3.org/2000/svg">
<path d="M109.424 21.1182C109.77 19.6488 110.105 18.2026 110.451 16.7621C110.895 14.9152 111.351 13.0682 111.795 11.2212C112.141 9.77503 112.481 8.32882 112.815 6.8826C112.994 6.10432 113.208 5.88361 114.09 5.81392C114.961 5.74422 115.837 5.72099 116.702 5.86619C117.141 5.9417 117.4 6.18563 117.51 6.62124C117.913 8.2417 118.323 9.86215 118.727 11.4768C119.153 13.1902 119.58 14.9036 120.001 16.6169C120.347 18.0341 120.687 19.4455 121.033 20.8627C121.051 20.9382 121.051 21.0195 121.155 21.0659C121.281 20.8801 121.276 20.6478 121.322 20.4387C121.639 19.097 121.933 17.7495 122.245 16.402C122.504 15.2811 122.769 14.1659 123.029 13.045C123.335 11.7091 123.629 10.3733 123.929 9.03159C124.113 8.21266 124.303 7.39372 124.494 6.57478C124.592 6.15079 124.845 5.91266 125.284 5.85457C126.143 5.73841 127.008 5.69776 127.862 5.84877C128.34 5.93589 128.41 6.0869 128.433 6.56316C128.461 7.14978 128.242 7.68412 128.104 8.23008C127.81 9.40912 127.487 10.5824 127.175 11.7556C126.916 12.743 126.651 13.7303 126.391 14.7235C126.085 15.8909 125.786 17.0584 125.48 18.2258C125.186 19.3467 124.892 20.4677 124.592 21.5829C124.332 22.5528 124.067 23.5228 123.819 24.4927C123.681 25.0445 123.369 25.4046 122.798 25.4917C121.558 25.6834 120.313 25.6601 119.067 25.5091C118.433 25.4336 118.156 25.027 118.012 24.452C117.556 22.6051 117.083 20.7639 116.616 18.9228C116.27 17.5404 115.935 16.1523 115.589 14.7642C115.405 14.0149 115.203 13.2715 115.001 12.4932C114.834 12.8185 114.811 13.1495 114.736 13.4632C114.424 14.7467 114.13 16.0361 113.825 17.3255C113.519 18.6033 113.202 19.8753 112.902 21.1531C112.648 22.2217 112.389 23.2904 112.152 24.3649C111.979 25.1606 111.65 25.5033 110.733 25.5788C109.747 25.6601 108.75 25.6717 107.769 25.573C106.697 25.4685 106.46 25.1897 106.206 24.121C105.958 23.0813 105.67 22.0475 105.405 21.0079C105.111 19.8579 104.816 18.7079 104.517 17.5579C104.263 16.5647 103.998 15.5773 103.744 14.5899C103.484 13.5909 103.231 12.5919 102.971 11.593C102.717 10.6114 102.458 9.62983 102.204 8.65407C102.037 8.00937 101.846 7.37048 101.748 6.70836C101.685 6.27856 101.887 5.97074 102.302 5.86619C102.833 5.73841 103.369 5.75003 103.905 5.76164C104.413 5.77326 104.926 5.73841 105.428 5.86038C105.739 5.93589 105.93 6.10432 105.999 6.42957C106.443 8.3869 106.904 10.3384 107.348 12.2957C107.746 14.0382 108.133 15.7806 108.53 17.523C108.79 18.6614 109.055 19.7998 109.321 20.9382C109.344 20.9962 109.332 21.0601 109.424 21.1182Z" fill="#273653"/>
<path d="M99.7703 15.4671C99.7876 16.739 99.6607 17.9994 99.3378 19.2307C98.7668 21.432 97.6653 23.2731 95.693 24.4928C94.4992 25.2304 93.1958 25.6138 91.8117 25.759C90.1624 25.9332 88.5245 25.8577 86.927 25.4163C84.5856 24.7716 82.942 23.3138 82.0885 21.008C81.2638 18.7777 81.1427 16.4602 81.3618 14.1196C81.5175 12.441 81.9501 10.8496 82.8497 9.41504C83.9109 7.72488 85.4161 6.62716 87.3077 6.04054C88.8129 5.57589 90.3469 5.51201 91.8982 5.61655C93.1958 5.70367 94.4415 5.98246 95.6122 6.58069C97.1001 7.33574 98.1324 8.52059 98.8014 10.0365C99.3378 11.2446 99.5857 12.5166 99.7069 13.8234C99.753 14.3635 99.7703 14.9153 99.7703 15.4671ZM91.2004 13.1729C91.2466 13.2426 91.2293 13.289 91.212 13.3355C90.9005 14.166 90.5372 14.9676 90.393 15.862C90.2027 17.0294 89.9894 18.1852 90.024 19.3759C90.047 20.1251 90.0932 20.886 89.8106 21.612C89.7587 21.7456 89.8106 21.7862 89.9317 21.8037C90.1739 21.8269 90.4103 21.8037 90.6468 21.7398C91.3677 21.5539 91.9732 21.1416 92.5672 20.7118C93.5246 20.0148 94.1186 19.0797 94.3666 17.9064C94.6837 16.408 94.528 14.9443 94.1301 13.4923C93.8014 12.2726 93.4092 11.0645 93.1555 9.8216C93.0632 9.37438 92.7921 9.20595 92.3538 9.35696C91.6906 9.58928 91.0332 9.83322 90.3988 10.1294C89.1877 10.6928 88.0805 11.4014 87.3134 12.534C86.3849 13.8989 85.9639 15.3916 86.31 17.0469C86.5752 18.3072 87.2039 19.3817 88.0286 20.3517C88.4495 20.8511 88.4553 20.8453 88.1612 21.4378C87.8844 21.9953 87.8959 21.9953 88.4957 22.1986C88.7379 22.2799 88.8763 22.2277 89.0147 22.007C89.4069 21.3739 89.5914 20.6943 89.603 19.9451C89.6145 18.7254 89.5857 17.4999 89.9548 16.3208C90.2258 15.4438 90.5545 14.59 90.9236 13.7537C91.0044 13.5562 91.0217 13.3355 91.2004 13.1729Z" fill="#42B64A"/>
<path d="M59.6603 19.5094C59.6603 20.7581 59.6661 22.0069 59.6603 23.2556C59.6546 24.2895 59.4181 24.5857 58.455 24.9225C56.3616 25.6544 54.2105 25.9738 52.0017 25.8402C49.9428 25.7182 48.0109 25.1723 46.3442 23.8887C45.0351 22.8781 44.1469 21.5597 43.5818 20.0089C43.0685 18.5917 42.8897 17.1165 42.9243 15.6238C42.9762 13.167 43.5875 10.8844 45.1619 8.9387C46.2288 7.62607 47.5841 6.72582 49.17 6.16824C50.3465 5.75006 51.5634 5.57582 52.8091 5.54678C54.5219 5.50612 56.2001 5.72102 57.8091 6.32506C58.2762 6.4993 58.7203 6.73163 59.124 7.03365C59.5738 7.36471 59.6661 7.85839 59.6949 8.36951C59.7295 8.92127 59.7238 9.47304 59.643 10.019C59.5565 10.6172 59.1817 10.8263 58.6626 10.5301C57.7226 9.98996 56.748 9.54855 55.7041 9.27557C54.568 8.97935 53.4204 8.86319 52.2554 9.04324C49.7064 9.43819 48.1435 10.9483 47.463 13.3993C46.9901 15.1069 47.042 16.8319 47.5899 18.5162C48.1781 20.34 49.3604 21.6003 51.2173 22.123C52.538 22.5006 53.8702 22.5006 55.1736 22.0011C55.4331 21.9023 55.5542 21.7687 55.5484 21.4551C55.5253 20.2354 55.5253 19.0157 55.5484 17.796C55.5542 17.4882 55.4561 17.4243 55.1736 17.4301C54.1759 17.4475 53.1724 17.4359 52.1747 17.4359C51.6845 17.4359 51.5115 17.3198 51.4077 16.8377C51.252 16.1291 51.2462 15.4205 51.4538 14.7177C51.5461 14.4099 51.7479 14.2647 52.0766 14.2647C54.222 14.2647 56.3616 14.2589 58.5069 14.2647C59.1701 14.2647 59.6488 14.7177 59.6546 15.3857C59.6719 16.7622 59.6603 18.1329 59.6603 19.5094C59.6546 19.5094 59.6546 19.5094 59.6603 19.5094Z" fill="#273653"/>
<path d="M63.6107 15.9838C63.6107 13.132 63.6107 10.2744 63.6107 7.42267C63.6107 7.16712 63.6107 6.91156 63.6799 6.67343C63.8126 6.23782 64.1355 5.98808 64.5681 5.90096C64.718 5.87191 64.8737 5.86611 65.0294 5.86611C66.7999 5.86611 68.5647 5.8603 70.3351 5.86611C71.4539 5.87191 72.5612 5.95323 73.6281 6.31914C75.289 6.88252 76.5578 7.90474 76.9903 9.67621C77.4517 11.5522 77.2729 13.3527 75.9465 14.8861C75.3871 15.5308 74.6662 15.9606 73.8819 16.2742C73.8011 16.3032 73.6916 16.309 73.68 16.4078C73.6685 16.5007 73.7838 16.5065 73.8415 16.5472C74.7469 17.1338 75.3467 17.976 75.7908 18.9343C76.5751 20.6302 77.2902 22.3611 77.9996 24.0919C78.1034 24.3358 78.1899 24.5972 78.1956 24.876C78.2072 25.2186 78.0745 25.3871 77.7458 25.4858C77.3364 25.6078 76.9096 25.6078 76.4886 25.6078C76.0157 25.6078 75.5486 25.602 75.0757 25.602C74.8046 25.602 74.5393 25.5439 74.2856 25.4626C74.0145 25.3755 73.8761 25.1547 73.7781 24.9108C73.1149 23.2729 72.4978 21.6234 71.7884 20.003C71.5462 19.4454 71.2752 18.8994 70.8772 18.429C70.3813 17.8424 69.7354 17.5984 69.0029 17.5578C68.6685 17.5403 68.3282 17.5578 67.9937 17.552C67.8149 17.5462 67.7457 17.5984 67.7457 17.8017C67.7573 20.1133 67.7573 22.4249 67.7573 24.7366C67.7573 25.1547 67.567 25.3813 67.1575 25.4684C66.1771 25.6775 65.1967 25.6775 64.2163 25.48C63.7492 25.3871 63.605 25.2012 63.605 24.7133C63.6107 21.8093 63.6107 18.8936 63.6107 15.9838ZM67.74 11.7265C67.74 12.528 67.7457 13.3295 67.7342 14.1368C67.7342 14.3517 67.7919 14.4272 68.011 14.4214C68.6569 14.4098 69.2971 14.4156 69.943 14.4098C70.5255 14.404 71.0906 14.2878 71.6097 14.0148C72.6593 13.4573 72.9938 12.5338 72.9303 11.3954C72.8669 10.2454 72.0826 9.3858 70.9638 9.18833C69.9603 9.01409 68.951 9.0954 67.9476 9.06055C67.7515 9.05474 67.74 9.15929 67.74 9.31611C67.7457 10.1234 67.74 10.9249 67.74 11.7265Z" fill="#273653"/>
<path d="M119.073 36.0915C119.073 37.3693 119.073 38.6471 119.073 39.9191C119.073 40.4592 118.894 40.6218 118.363 40.6335C117.879 40.6451 117.539 40.4302 117.314 40.012C116.864 39.1814 116.408 38.3509 115.958 37.5203C115.312 36.3123 114.667 35.1042 114.021 33.8961C113.969 33.7915 113.923 33.687 113.865 33.5825C113.825 33.5128 113.825 33.3792 113.709 33.414C113.611 33.4431 113.657 33.565 113.657 33.6463C113.657 35.8128 113.657 37.9792 113.657 40.1456C113.657 40.5812 113.605 40.6277 113.115 40.6277C112.631 40.6277 112.533 40.5463 112.533 40.1282C112.533 37.5842 112.533 35.0403 112.533 32.4963C112.533 31.9155 112.688 31.7994 113.265 31.7471C113.934 31.6832 114.309 31.991 114.603 32.5602C115.618 34.5234 116.714 36.44 117.712 38.4148C117.752 38.4903 117.763 38.6413 117.89 38.5948C118 38.5542 117.948 38.4264 117.948 38.3335C117.948 36.3297 117.948 34.3317 117.948 32.3279C117.948 31.8168 118.046 31.7181 118.548 31.7239C118.98 31.7297 119.073 31.8342 119.073 32.2814C119.073 33.5592 119.073 34.8254 119.073 36.0915Z" fill="#79797A"/>
<path d="M61.0673 35.9868C61.0443 37.1252 60.9174 38.1707 60.3291 39.1058C59.862 39.855 59.1988 40.3371 58.3626 40.5694C57.3937 40.8366 56.4191 40.8075 55.4848 40.4358C54.5967 40.0873 54.0027 39.4136 53.7086 38.5017C53.2299 37.0032 53.2184 35.4931 53.7201 34.0063C54.1007 32.8911 54.8677 32.1128 56.0154 31.805C57.1111 31.5088 58.1953 31.5262 59.2276 32.0606C60.0062 32.4613 60.4733 33.1292 60.7559 33.9366C60.9981 34.6219 61.0327 35.3363 61.0673 35.9868ZM57.2726 32.6704C56.0558 32.6007 55.2022 33.3558 54.885 34.3315C54.516 35.4641 54.5333 36.6083 54.7812 37.7583C54.8908 38.2694 55.0927 38.7457 55.4848 39.0941C56.8804 40.3196 59.1354 39.6285 59.6198 37.8338C59.8793 36.8813 59.9082 35.9113 59.7409 34.9414C59.4756 33.408 58.6625 32.6704 57.2726 32.6704Z" fill="#79797A"/>
<path d="M99.7298 36.2947C99.7183 35.2783 99.8567 34.3606 100.301 33.4952C100.716 32.6879 101.345 32.1245 102.192 31.8573C103.328 31.5031 104.476 31.4914 105.572 32.0548C106.408 32.4846 106.91 33.1932 107.152 34.0877C107.561 35.621 107.561 37.1485 106.927 38.6238C106.356 39.9422 105.301 40.5869 103.888 40.7031C103.127 40.7669 102.388 40.6914 101.696 40.372C100.71 39.9132 100.174 39.0884 99.9201 38.0488C99.7702 37.4563 99.7183 36.8523 99.7298 36.2947ZM106.183 36.2831C106.189 35.6675 106.143 35.2028 106.051 34.7498C105.653 32.7983 104.119 32.322 102.585 32.8389C101.639 33.1584 101.235 34.0121 101.05 34.9647C100.889 35.8068 100.912 36.6548 101.062 37.4912C101.183 38.194 101.437 38.8503 102.071 39.2743C102.694 39.6925 103.386 39.7331 104.09 39.6228C104.845 39.5066 105.382 39.071 105.733 38.3972C106.108 37.6945 106.16 36.9104 106.183 36.2831Z" fill="#79797A"/>
<path d="M75.4793 34.9241C75.4793 35.836 75.4389 36.7478 75.4851 37.6539C75.5946 39.6228 77.4112 40.1572 78.7319 39.4486C79.3605 39.1117 79.6143 38.4786 79.6777 37.7817C79.7527 36.9395 79.7065 36.0973 79.7123 35.261C79.7181 34.2271 79.7238 33.1875 79.7065 32.1536C79.7008 31.869 79.8103 31.7819 80.0756 31.7761C80.8138 31.7645 80.8138 31.7587 80.8138 32.4905C80.8138 34.0877 80.8253 35.6849 80.808 37.2822C80.8023 38.0198 80.6696 38.74 80.2544 39.3847C79.8276 40.0468 79.2163 40.4243 78.4666 40.587C77.5612 40.7844 76.6788 40.7264 75.8368 40.2966C75.0641 39.9016 74.6777 39.2279 74.4816 38.4206C74.372 37.9559 74.3605 37.4855 74.3605 37.0092C74.3662 35.412 74.3662 33.8147 74.3662 32.2175C74.3662 31.8458 74.4239 31.7877 74.8045 31.7819C75.6177 31.7703 75.462 31.811 75.4677 32.4324C75.4735 33.263 75.4677 34.0993 75.4677 34.9299C75.4735 34.9241 75.4793 34.9241 75.4793 34.9241Z" fill="#79797A"/>
<path d="M48.9393 38.3972C48.9393 39.344 48.178 40.2907 46.99 40.5927C45.9404 40.8599 44.9542 40.7263 44.02 40.1978C43.6797 40.0061 43.5586 39.6634 43.6451 39.2801C43.7201 38.9432 43.8642 38.8677 44.1468 39.0652C44.4525 39.2743 44.7812 39.4253 45.1272 39.5414C45.6405 39.7099 46.1653 39.7389 46.6843 39.5937C47.2034 39.4485 47.5782 39.1175 47.6763 38.5773C47.7858 38.0023 47.6244 37.5028 47.1226 37.1543C46.742 36.8871 46.3268 36.6955 45.9058 36.498C45.2772 36.2018 44.6716 35.8765 44.2449 35.2899C43.5009 34.2619 43.7374 32.4265 45.1964 31.869C46.1999 31.4914 47.1688 31.5495 48.1088 32.0548C48.4664 32.2465 48.5932 32.8099 48.3741 33.1467C48.276 33.2978 48.1607 33.2397 48.0511 33.1816C47.7224 33.0015 47.3995 32.8099 47.0304 32.7169C46.5863 32.6066 46.1365 32.5717 45.7097 32.775C44.9658 33.1235 44.7927 34.0586 45.3464 34.6685C45.7039 35.0576 46.1768 35.2551 46.6267 35.4816C47.1053 35.7255 47.6071 35.9346 48.0338 36.2715C48.6394 36.7478 48.9566 37.3576 48.9393 38.3972Z" fill="#79797A"/>
<path d="M128.133 38.1125C128.179 39.3555 127.314 40.337 126.201 40.6042C125.139 40.854 124.147 40.7436 123.207 40.186C122.856 39.9769 122.717 39.4832 122.89 39.1173C123.011 38.856 123.196 38.9721 123.346 39.0709C123.778 39.3497 124.234 39.5762 124.747 39.6459C125.41 39.733 126.039 39.6981 126.575 39.1987C126.962 38.8386 127.014 37.7583 126.575 37.3691C126.131 36.9742 125.607 36.7476 125.093 36.4921C124.615 36.2481 124.147 35.9984 123.744 35.6209C122.556 34.5231 122.896 32.2057 124.736 31.7585C125.635 31.5436 126.483 31.6017 127.291 32.0489C127.66 32.2522 127.792 32.7575 127.602 33.135C127.504 33.3325 127.366 33.2512 127.239 33.1757C126.789 32.9143 126.327 32.6878 125.797 32.6413C125.064 32.5774 124.447 32.9201 124.286 33.5125C124.136 34.0643 124.355 34.587 124.909 34.982C125.359 35.3014 125.878 35.4873 126.362 35.7428C126.725 35.9345 127.094 36.1204 127.4 36.4108C127.896 36.8696 128.179 37.4272 128.133 38.1125Z" fill="#79797A"/>
<path d="M86.9212 36.6897C86.9212 35.499 86.9154 34.3083 86.9269 33.1235C86.9269 32.8679 86.8462 32.7808 86.5982 32.7866C85.9638 32.7982 85.3295 32.7924 84.6951 32.7924C84.3952 32.7924 84.2972 32.7053 84.2799 32.4033C84.2741 32.2813 84.2856 32.1535 84.2972 32.0258C84.3145 31.8457 84.4183 31.7644 84.6086 31.7644C86.529 31.7702 88.4494 31.7702 90.3699 31.7644C90.589 31.7644 90.6871 31.8748 90.6986 32.078C90.7044 32.1942 90.6986 32.3104 90.7044 32.4265C90.7044 32.6763 90.589 32.7924 90.3353 32.7924C89.6836 32.7866 89.0319 32.7924 88.3745 32.7866C88.1496 32.7866 88.0457 32.8331 88.0746 33.1003C88.1149 33.4662 88.0919 33.8321 88.0919 34.2038C88.0919 36.1785 88.0919 38.1475 88.0919 40.1222C88.0919 40.5578 88.0227 40.6217 87.5901 40.6333C87.5498 40.6333 87.5152 40.6333 87.4748 40.6333C86.9385 40.6333 86.9212 40.6101 86.9212 40.0874C86.9212 38.949 86.9212 37.8164 86.9212 36.6897Z" fill="#79797A"/>
<path d="M66.2058 36.0914C66.2058 34.7846 66.2058 33.4777 66.2058 32.1709C66.2058 31.8224 66.2923 31.7295 66.6441 31.7121C66.6556 31.7121 66.6614 31.7121 66.6729 31.7121C67.3419 31.6947 67.3996 31.7469 67.3938 32.4149C67.3938 34.6568 67.3938 36.9045 67.3938 39.1464C67.3938 39.5414 67.3938 39.5414 67.7975 39.5414C68.6049 39.5414 69.4123 39.5414 70.2197 39.5414C70.6061 39.5414 70.6984 39.6517 70.6926 40.0873C70.6868 40.4823 70.6003 40.581 70.237 40.581C69.0836 40.581 67.9302 40.581 66.7768 40.581C66.3558 40.581 66.2058 40.4358 66.2058 40.006C66.2058 38.705 66.2058 37.3982 66.2058 36.0914Z" fill="#79797A"/>
<path d="M96.0446 36.1438C96.0446 37.5145 96.0446 38.891 96.0446 40.2618C96.0446 40.4476 95.9812 40.5812 95.7736 40.5986C95.6986 40.6044 95.6237 40.6277 95.5487 40.6335C94.9547 40.6625 94.8682 40.5812 94.8682 39.9772C94.8682 37.3868 94.8682 34.7964 94.8682 32.2059C94.8682 31.8168 94.9489 31.7297 95.3353 31.7239C95.4103 31.7239 95.491 31.7239 95.566 31.7239C95.9581 31.7355 96.0331 31.811 96.0331 32.2059C96.0331 33.5186 96.0331 34.837 96.0331 36.1496C96.0331 36.1438 96.0389 36.1438 96.0446 36.1438Z" fill="#79797A"/>
<path d="M4.56754 23.0232C4.56754 17.5636 4.58484 12.1099 4.55601 6.65026C4.54447 5.08208 5.56524 4.03663 6.76479 3.70557C7.00124 3.64168 7.26076 3.66491 7.50874 3.66491C15.2424 3.66491 22.9818 3.66491 30.7154 3.66491C30.9865 3.66491 31.2517 3.67652 31.5228 3.66491C33.2817 3.55456 34.4986 5.12855 34.4928 6.65607C34.464 14.7467 34.4813 22.8374 34.4813 30.928C34.4813 33.7566 34.4755 36.5793 34.4813 39.4078C34.4871 40.7205 33.9161 41.6614 32.7339 42.219C32.6012 42.2828 32.4686 42.3235 32.3186 42.3235C32.1168 42.3293 31.915 42.3351 31.7131 42.3351C23.5931 42.3351 15.4731 42.3119 7.35303 42.3525C5.77286 42.3583 4.90203 41.2374 4.60791 40.2094C4.54447 39.9945 4.57331 39.7505 4.57331 39.5182C4.56754 34.0121 4.56754 28.5177 4.56754 23.0232ZM19.3024 28.7558C20.623 28.75 21.886 28.5177 23.0971 28.0066C25.8192 26.8624 27.6704 24.8644 28.6912 22.1056C29.3544 20.3109 29.4697 18.4581 29.0314 16.5763C28.6566 14.9732 27.9472 13.5503 26.9091 12.2899C26.7361 12.0808 26.7765 11.9937 26.9668 11.8427C27.7973 11.1748 28.3163 10.321 28.4489 9.25228C28.4951 8.88057 28.3797 8.7586 28.0049 8.7586C24.9887 8.7586 21.9725 8.74117 18.9564 8.77602C17.2435 8.79345 15.6403 9.26971 14.1812 10.1816C11.3496 11.953 9.74059 14.526 9.3715 17.8541C9.18119 19.5965 9.46954 21.3041 10.225 22.878C12.059 26.6881 15.1386 28.5874 19.3024 28.7558ZM19.51 37.4738C20.0867 37.5144 20.9114 37.4157 21.7246 37.2995C23.0856 37.102 24.4062 36.7477 25.6808 36.2134C26.5689 35.8417 27.4166 35.4003 28.2356 34.9008C28.4835 34.7498 28.5239 34.5929 28.3797 34.3722C27.7742 33.4894 27.1687 32.6066 26.5631 31.7238C26.4132 31.503 26.2286 31.4508 25.9979 31.6018C25.9172 31.6541 25.8307 31.6947 25.7442 31.7412C23.8411 32.7866 21.8399 33.4662 19.6484 33.5184C18.3797 33.5475 17.1397 33.3965 15.9229 33.0422C14.7637 32.6995 13.6622 32.2058 12.6126 31.596C12.2896 31.4043 12.1916 31.4275 11.9782 31.747C11.4188 32.5775 10.8652 33.4139 10.3115 34.2503C10.0809 34.5988 10.1039 34.7207 10.4672 34.9414C13.1662 36.6025 16.0901 37.4563 19.51 37.4738Z" fill="#42B64A"/>
<path d="M13.2297 18.7426C13.2239 15.4146 16.044 12.5106 19.5331 12.6383C22.7165 12.7603 25.4962 15.4959 25.3866 18.9575C25.2828 22.1694 22.6242 25.0444 19.0313 24.8644C15.7556 24.7075 13.2181 22.059 13.2297 18.7426Z" fill="#42B64A"/>
</svg>
