<svg width="207" height="51" viewBox="0 0 207 51" fill="none" xmlns="http://www.w3.org/2000/svg">
<path d="M28.5315 20.1705L24.8604 14.0395H36.1377C36.2764 14.0395 36.4094 14.0952 36.5075 14.1944C36.6056 14.2935 36.6607 14.428 36.6607 14.5682C36.6607 14.7084 36.6056 14.8429 36.5075 14.942C36.4094 15.0412 36.2764 15.0969 36.1377 15.0969H26.7152L27.8045 16.9158H34.5517C34.6444 16.9165 34.7353 16.942 34.8152 16.9897C34.895 17.0374 34.9609 17.1056 35.0063 17.1873C35.0516 17.2691 35.0747 17.3616 35.0732 17.4553C35.0718 17.549 35.0458 17.6407 34.9979 17.721L24.9204 34.4114H27.8621L40.2119 14.3087L38.4507 11.3984H18.5931V14.3936L25.2179 25.4938L28.5315 20.1705Z" fill="#0633F8"/>
<path d="M30.0407 32.2141L33.7118 38.345H22.4346C22.2958 38.345 22.1628 38.2893 22.0647 38.1902C21.9666 38.091 21.9115 37.9565 21.9115 37.8163C21.9115 37.6761 21.9666 37.5416 22.0647 37.4425C22.1628 37.3433 22.2958 37.2876 22.4346 37.2876H31.8523L30.7629 35.4687H24.0278C23.935 35.468 23.8441 35.4425 23.7643 35.3948C23.6844 35.3472 23.6185 35.279 23.5732 35.1972C23.5278 35.1154 23.5047 35.023 23.5062 34.9292C23.5076 34.8355 23.5336 34.7438 23.5815 34.6635L33.647 17.9731H30.7125L18.3604 38.0758L20.1215 40.9861H39.9791V37.9909L33.3519 26.8907L30.0407 32.2141Z" fill="#0633F8"/>
<path d="M50.7213 33.776H48.1659V15.7251H50.7213V33.776Z" fill="#2D2D2D"/>
<path d="M65.5352 17.8375C65.5352 18.599 64.2491 20.8084 61.677 24.4656C60.0582 26.7017 58.437 28.9369 56.8134 31.1714H65.3145V33.7761H56.2495C55.6383 33.7876 55.0472 33.5559 54.6035 33.131C54.3821 32.929 54.206 32.6814 54.0873 32.4049C53.9685 32.1283 53.9097 31.8293 53.9149 31.5279C53.9149 30.7486 55.1946 28.5554 57.7539 24.9483C59.3535 22.7462 60.9667 20.5441 62.5936 18.342H54.1356V15.7251H63.4453C63.721 15.7205 63.9948 15.772 64.2505 15.8766C64.5061 15.9811 64.7383 16.1365 64.9332 16.3336C65.1282 16.5307 65.282 16.7654 65.3854 17.0237C65.4888 17.2821 65.5398 17.5588 65.5352 17.8375Z" fill="#2D2D2D"/>
<path d="M80.4956 17.8375C80.4956 18.599 79.2095 20.8084 76.6374 24.4656C75.0186 26.7017 73.3974 28.9369 71.7738 31.1714H80.2749V33.7761H71.2099C70.5987 33.7881 70.0073 33.5564 69.5639 33.131C69.3412 32.9279 69.1645 32.6787 69.0456 32.4004C68.9268 32.1221 68.8687 31.8212 68.8753 31.5182C68.8753 30.7389 70.1549 28.5457 72.7143 24.9386C74.3139 22.7365 75.9271 20.5344 77.5539 18.3322H69.1032V15.7251H78.4129C78.6886 15.7205 78.9624 15.772 79.218 15.8766C79.4737 15.9811 79.7059 16.1365 79.9008 16.3336C80.0958 16.5307 80.2496 16.7654 80.353 17.0237C80.4564 17.2821 80.5074 17.5588 80.5028 17.8375H80.4956Z" fill="#2D2D2D"/>
<path d="M98.6976 33.7759H95.9767L94.6306 30.0022H86.9213L85.5704 33.7759H82.8542L88.7232 17.3886C89.1671 16.176 89.8198 15.5527 90.6883 15.5527C91.6897 15.5527 92.4095 16.172 92.8478 17.4105L98.6976 33.7759ZM93.7068 27.4048L90.7339 19.159L87.8546 27.4048H93.7068Z" fill="#2D2D2D"/>
<path d="M113.903 33.776H110.515C109.269 32.3694 108.023 30.9547 106.779 29.5319C104.783 27.2134 103.784 25.8148 103.782 25.3363C103.782 24.0784 104.686 23.4486 106.493 23.447C106.757 23.447 107.16 23.447 107.693 23.4737C108.226 23.5004 108.629 23.4979 108.876 23.4979C110.436 23.4979 111.215 22.9951 111.215 21.9894V20.0129C111.234 19.5697 111.085 19.1359 110.798 18.8003C110.652 18.6437 110.474 18.5209 110.276 18.4401C110.079 18.3593 109.866 18.3225 109.653 18.3322H103.655V33.776H101.104V15.7251H110.047C110.543 15.7068 111.037 15.7912 111.5 15.973C111.962 16.1549 112.383 16.4303 112.737 16.7825C113.083 17.1353 113.355 17.5562 113.534 18.0192C113.714 18.4822 113.798 18.9775 113.78 19.4745V22.603C113.78 24.2586 113.036 25.3185 111.547 25.7825C110.857 25.9991 109.473 26.1067 107.393 26.1051L113.903 33.776Z" fill="#2D2D2D"/>
<path d="M129.568 29.1826C129.599 30.3597 129.186 31.5045 128.414 32.3863C128.042 32.8337 127.574 33.1908 127.047 33.4313C126.52 33.6718 125.946 33.7896 125.367 33.776H116.852V15.725H125.866C126.387 15.7114 126.903 15.8187 127.376 16.0386C127.849 16.2585 128.266 16.5851 128.594 16.9934C129.257 17.8056 129.603 18.8345 129.568 19.8867V29.1826ZM127.013 28.9861V20.3936C127.013 19.666 126.879 19.1406 126.61 18.8172C126.341 18.4938 125.861 18.3321 125.17 18.3321H119.407V31.1713H125.25C126.432 31.1713 127.022 30.4429 127.02 28.9861H127.013Z" fill="#2D2D2D"/>
<path d="M142.645 18.3322H138.806V33.776H136.258V18.3322H132.448V15.7251H142.645V18.3322Z" fill="#2D2D2D"/>
<path d="M157.162 18.3322H150.751C149.868 18.3322 149.244 18.4316 148.884 18.6305C148.361 18.928 148.099 19.4939 148.099 20.3282V23.384H157.138V25.9911H148.099V29.5343C148.081 29.8481 148.169 30.1588 148.347 30.4166C148.525 30.6743 148.783 30.8641 149.081 30.9555C149.679 31.1313 150.301 31.2075 150.923 31.181H157.09V33.7857H150.235C148.713 33.7857 147.551 33.3637 146.748 32.5198C145.945 31.6758 145.545 30.4842 145.549 28.945V20.2457C145.549 17.2336 147.268 15.7267 150.707 15.7251H157.162V18.3322Z" fill="#2D2D2D"/>
<path d="M171.215 18.3322H164.12C162.874 18.3322 162.252 18.97 162.253 20.2457V29.2336C162.249 29.486 162.295 29.7366 162.388 29.9709C162.481 30.2053 162.618 30.4188 162.793 30.599C162.962 30.7835 163.167 30.9299 163.396 31.0286C163.625 31.1272 163.871 31.1759 164.12 31.1713H171.169V33.776H163.575C163.036 33.7859 162.502 33.6703 162.014 33.4382C161.526 33.2061 161.097 32.8636 160.761 32.4373C160.059 31.5987 159.684 30.5305 159.705 29.4325V20.1705C159.705 18.8771 160.065 17.8132 160.785 16.9789C161.505 16.1447 162.504 15.7267 163.782 15.7251H171.22L171.215 18.3322Z" fill="#2D2D2D"/>
<path d="M187.011 33.776H184.455V26.1051H176.741V33.776H174.198V15.7251H176.741V23.4979H184.455V15.7372H187.011V33.776Z" fill="#2D2D2D"/>
</svg>
