<svg width="428" height="48" viewBox="0 0 428 48" fill="none" xmlns="http://www.w3.org/2000/svg">
<path d="M8.075 47V11.575L0.0150001 13.72V6.7L11.845 1.5H17.175V47H8.075ZM41.0568 47.78C36.9401 47.78 33.3868 46.7833 30.3968 44.79C27.4068 42.7967 25.1101 40.045 23.5068 36.535C21.9468 32.9817 21.1668 28.8867 21.1668 24.25C21.1668 19.6133 21.9468 15.54 23.5068 12.03C25.1101 8.47667 27.3851 5.70333 30.3318 3.71C33.3218 1.71667 36.8968 0.719999 41.0568 0.719999C45.2168 0.719999 48.7701 1.71667 51.7168 3.71C54.7068 5.70333 56.9818 8.47667 58.5418 12.03C60.1451 15.54 60.9468 19.6133 60.9468 24.25C60.9468 28.8867 60.1451 32.9817 58.5418 36.535C56.9818 40.045 54.7068 42.7967 51.7168 44.79C48.7701 46.7833 45.2168 47.78 41.0568 47.78ZM41.0568 39.915C43.2234 39.915 45.1301 39.2867 46.7768 38.03C48.4234 36.73 49.7018 34.91 50.6118 32.57C51.5651 30.23 52.0418 27.4567 52.0418 24.25C52.0418 21 51.5651 18.2267 50.6118 15.93C49.7018 13.59 48.4234 11.7917 46.7768 10.535C45.1301 9.27833 43.2234 8.65 41.0568 8.65C38.8901 8.65 36.9834 9.27833 35.3368 10.535C33.6901 11.7917 32.3901 13.59 31.4368 15.93C30.5268 18.2267 30.0718 21 30.0718 24.25C30.0718 27.4567 30.5268 30.23 31.4368 32.57C32.3901 34.91 33.6901 36.73 35.3368 38.03C36.9834 39.2867 38.8901 39.915 41.0568 39.915ZM83.3234 47.78C79.2067 47.78 75.6534 46.7833 72.6634 44.79C69.6734 42.7967 67.3767 40.045 65.7734 36.535C64.2134 32.9817 63.4334 28.8867 63.4334 24.25C63.4334 19.6133 64.2134 15.54 65.7734 12.03C67.3767 8.47667 69.6517 5.70333 72.5984 3.71C75.5884 1.71667 79.1634 0.719999 83.3234 0.719999C87.4834 0.719999 91.0367 1.71667 93.9834 3.71C96.9734 5.70333 99.2484 8.47667 100.808 12.03C102.412 15.54 103.213 19.6133 103.213 24.25C103.213 28.8867 102.412 32.9817 100.808 36.535C99.2484 40.045 96.9734 42.7967 93.9834 44.79C91.0367 46.7833 87.4834 47.78 83.3234 47.78ZM83.3234 39.915C85.49 39.915 87.3967 39.2867 89.0434 38.03C90.69 36.73 91.9684 34.91 92.8784 32.57C93.8317 30.23 94.3084 27.4567 94.3084 24.25C94.3084 21 93.8317 18.2267 92.8784 15.93C91.9684 13.59 90.69 11.7917 89.0434 10.535C87.3967 9.27833 85.49 8.65 83.3234 8.65C81.1567 8.65 79.25 9.27833 77.6034 10.535C75.9567 11.7917 74.6567 13.59 73.7034 15.93C72.7934 18.2267 72.3384 21 72.3384 24.25C72.3384 27.4567 72.7934 30.23 73.7034 32.57C74.6567 34.91 75.9567 36.73 77.6034 38.03C79.25 39.2867 81.1567 39.915 83.3234 39.915ZM114.865 47L140.41 1.5H148.925L123.38 47H114.865ZM147.365 47.78C145.242 47.78 143.313 47.325 141.58 46.415C139.89 45.4617 138.547 44.1183 137.55 42.385C136.553 40.6083 136.055 38.5283 136.055 36.145C136.055 33.7183 136.553 31.6383 137.55 29.905C138.547 28.1717 139.89 26.85 141.58 25.94C143.313 24.9867 145.242 24.51 147.365 24.51C149.488 24.51 151.395 24.9867 153.085 25.94C154.775 26.85 156.118 28.1717 157.115 29.905C158.112 31.6383 158.61 33.7183 158.61 36.145C158.61 38.5283 158.112 40.6083 157.115 42.385C156.118 44.1183 154.775 45.4617 153.085 46.415C151.395 47.325 149.488 47.78 147.365 47.78ZM147.3 41.735C148.167 41.735 148.925 41.5183 149.575 41.085C150.225 40.6517 150.745 40.0233 151.135 39.2C151.525 38.3767 151.72 37.3583 151.72 36.145C151.72 34.8883 151.525 33.8483 151.135 33.025C150.788 32.1583 150.268 31.5083 149.575 31.075C148.925 30.6417 148.167 30.425 147.3 30.425C146.477 30.425 145.718 30.6417 145.025 31.075C144.375 31.5083 143.855 32.1583 143.465 33.025C143.075 33.8483 142.88 34.8883 142.88 36.145C142.88 37.3583 143.075 38.3767 143.465 39.2C143.855 40.0233 144.375 40.6517 145.025 41.085C145.718 41.5183 146.477 41.735 147.3 41.735ZM116.75 24.055C114.67 24.055 112.763 23.5783 111.03 22.625C109.297 21.6717 107.932 20.3283 106.935 18.595C105.938 16.8617 105.44 14.8033 105.44 12.42C105.44 9.95 105.938 7.87 106.935 6.18C107.975 4.44666 109.34 3.10333 111.03 2.15C112.763 1.19666 114.692 0.719999 116.815 0.719999C118.938 0.719999 120.823 1.19666 122.47 2.15C124.16 3.10333 125.503 4.44666 126.5 6.18C127.54 7.87 128.06 9.95 128.06 12.42C128.06 14.8033 127.54 16.8617 126.5 18.595C125.503 20.3283 124.16 21.6717 122.47 22.625C120.78 23.5783 118.873 24.055 116.75 24.055ZM116.75 18.01C117.573 18.01 118.31 17.7933 118.96 17.36C119.653 16.9267 120.195 16.2983 120.585 15.475C120.975 14.6517 121.17 13.6333 121.17 12.42C121.17 11.12 120.975 10.0583 120.585 9.235C120.195 8.41166 119.653 7.78333 118.96 7.35C118.31 6.91667 117.573 6.7 116.75 6.7C115.927 6.7 115.168 6.91667 114.475 7.35C113.825 7.78333 113.305 8.43333 112.915 9.3C112.525 10.1233 112.33 11.1633 112.33 12.42C112.33 13.6333 112.525 14.6517 112.915 15.475C113.305 16.2983 113.825 16.9267 114.475 17.36C115.168 17.7933 115.927 18.01 116.75 18.01Z" fill="#A74838"/>
<path d="M181.342 47.492C179.565 47.492 178.035 47.164 176.75 46.508C175.465 45.8247 174.468 44.8407 173.757 43.556C173.046 42.2713 172.691 40.7407 172.691 38.964H176.832C176.832 39.8933 176.982 40.727 177.283 41.465C177.584 42.203 178.048 42.7907 178.677 43.228C179.333 43.638 180.194 43.843 181.26 43.843C182.326 43.843 183.16 43.638 183.761 43.228C184.39 42.818 184.841 42.2713 185.114 41.588C185.387 40.8773 185.524 40.071 185.524 39.169V18.3H189.624V39.169C189.624 41.8203 188.886 43.8703 187.41 45.319C185.934 46.7677 183.911 47.492 181.342 47.492ZM202.322 47.492C200.381 47.492 198.632 47.041 197.074 46.139C195.543 45.237 194.327 43.9797 193.425 42.367C192.55 40.727 192.113 38.841 192.113 36.709C192.113 34.5223 192.564 32.6227 193.466 31.01C194.368 29.37 195.598 28.099 197.156 27.197C198.714 26.295 200.463 25.844 202.404 25.844C204.372 25.844 206.121 26.295 207.652 27.197C209.182 28.099 210.385 29.3563 211.26 30.969C212.162 32.5817 212.613 34.4813 212.613 36.668C212.613 38.8547 212.162 40.7543 211.26 42.367C210.385 43.9797 209.169 45.237 207.611 46.139C206.053 47.041 204.29 47.492 202.322 47.492ZM202.322 43.966C203.442 43.966 204.454 43.6927 205.356 43.146C206.285 42.5993 207.023 41.793 207.57 40.727C208.144 39.6337 208.431 38.2807 208.431 36.668C208.431 35.0553 208.157 33.716 207.611 32.65C207.064 31.5567 206.326 30.7367 205.397 30.19C204.495 29.6433 203.497 29.37 202.404 29.37C201.31 29.37 200.299 29.6433 199.37 30.19C198.44 30.7367 197.689 31.5567 197.115 32.65C196.568 33.716 196.295 35.0553 196.295 36.668C196.295 38.2807 196.568 39.6337 197.115 40.727C197.689 41.793 198.427 42.5993 199.329 43.146C200.258 43.6927 201.256 43.966 202.322 43.966ZM226.21 47.492C225.09 47.492 224.065 47.328 223.135 47C222.233 46.6993 221.441 46.2757 220.757 45.729C220.074 45.1823 219.5 44.5537 219.035 43.843L218.625 47H214.935V17.48H219.035V29.575C219.691 28.5363 220.607 27.6617 221.782 26.951C222.985 26.213 224.461 25.844 226.21 25.844C228.178 25.844 229.914 26.3223 231.417 27.279C232.921 28.2083 234.082 29.493 234.902 31.133C235.75 32.7457 236.173 34.6043 236.173 36.709C236.173 38.759 235.75 40.604 234.902 42.244C234.082 43.884 232.921 45.1687 231.417 46.098C229.914 47.0273 228.178 47.492 226.21 47.492ZM225.554 43.925C226.812 43.925 227.919 43.6243 228.875 43.023C229.859 42.4217 230.625 41.5743 231.171 40.481C231.745 39.3877 232.032 38.1167 232.032 36.668C232.032 35.2193 231.745 33.962 231.171 32.896C230.625 31.8027 229.859 30.9553 228.875 30.354C227.919 29.7253 226.812 29.411 225.554 29.411C224.27 29.411 223.135 29.7253 222.151 30.354C221.195 30.9553 220.443 31.8027 219.896 32.896C219.35 33.962 219.076 35.2193 219.076 36.668C219.076 38.1167 219.35 39.3877 219.896 40.481C220.443 41.5743 221.195 42.4217 222.151 43.023C223.135 43.6243 224.27 43.925 225.554 43.925ZM246.656 47V18.3H256.455C258.751 18.3 260.637 18.6827 262.113 19.448C263.589 20.2133 264.682 21.2383 265.393 22.523C266.104 23.8077 266.459 25.27 266.459 26.91C266.459 28.468 266.104 29.903 265.393 31.215C264.71 32.4997 263.63 33.5383 262.154 34.331C260.678 35.0963 258.778 35.479 256.455 35.479H250.756V47H246.656ZM250.756 32.076H256.291C258.45 32.076 259.981 31.6113 260.883 30.682C261.812 29.7253 262.277 28.468 262.277 26.91C262.277 25.2427 261.812 23.958 260.883 23.056C259.981 22.154 258.45 21.703 256.291 21.703H250.756V32.076ZM268.175 47V17.48H272.275V47H268.175ZM282.251 47.492C280.557 47.492 279.149 47.205 278.028 46.631C276.908 46.057 276.074 45.2917 275.527 44.335C274.981 43.351 274.707 42.2987 274.707 41.178C274.707 39.8113 275.063 38.6497 275.773 37.693C276.484 36.709 277.495 35.9573 278.807 35.438C280.119 34.9187 281.691 34.659 283.522 34.659H288.893C288.893 33.4563 288.716 32.4587 288.36 31.666C288.005 30.8733 287.472 30.2857 286.761 29.903C286.078 29.493 285.203 29.288 284.137 29.288C282.907 29.288 281.855 29.5887 280.98 30.19C280.106 30.764 279.559 31.625 279.34 32.773H275.24C275.404 31.3243 275.896 30.0943 276.716 29.083C277.564 28.0443 278.643 27.2517 279.955 26.705C281.267 26.131 282.661 25.844 284.137 25.844C286.078 25.844 287.704 26.1857 289.016 26.869C290.328 27.5523 291.312 28.5227 291.968 29.78C292.652 31.01 292.993 32.486 292.993 34.208V47H289.426L289.098 43.515C288.798 44.0617 288.442 44.581 288.032 45.073C287.622 45.565 287.13 45.9887 286.556 46.344C286.01 46.6993 285.367 46.9727 284.629 47.164C283.919 47.3827 283.126 47.492 282.251 47.492ZM283.03 44.171C283.905 44.171 284.698 43.9933 285.408 43.638C286.119 43.2827 286.72 42.8043 287.212 42.203C287.732 41.5743 288.114 40.8773 288.36 40.112C288.634 39.3193 288.784 38.513 288.811 37.693V37.57H283.932C282.757 37.57 281.8 37.7203 281.062 38.021C280.352 38.2943 279.832 38.677 279.504 39.169C279.176 39.661 279.012 40.235 279.012 40.891C279.012 41.5743 279.163 42.162 279.463 42.654C279.791 43.1187 280.256 43.4877 280.857 43.761C281.459 44.0343 282.183 44.171 283.03 44.171ZM305.279 47.492C303.284 47.492 301.507 47.041 299.949 46.139C298.391 45.2097 297.161 43.9387 296.259 42.326C295.385 40.7133 294.947 38.841 294.947 36.709C294.947 34.5497 295.385 32.6637 296.259 31.051C297.161 29.411 298.391 28.14 299.949 27.238C301.507 26.3087 303.284 25.844 305.279 25.844C307.794 25.844 309.899 26.5 311.593 27.812C313.288 29.124 314.368 30.9007 314.832 33.142H310.568C310.295 31.9393 309.666 31.01 308.682 30.354C307.726 29.698 306.578 29.37 305.238 29.37C304.145 29.37 303.134 29.657 302.204 30.231C301.275 30.7777 300.523 31.5977 299.949 32.691C299.403 33.757 299.129 35.0827 299.129 36.668C299.129 37.8433 299.293 38.8957 299.621 39.825C299.949 40.727 300.387 41.4923 300.933 42.121C301.507 42.7497 302.163 43.228 302.901 43.556C303.639 43.8567 304.418 44.007 305.238 44.007C306.14 44.007 306.947 43.8703 307.657 43.597C308.395 43.2963 309.01 42.859 309.502 42.285C310.022 41.711 310.377 41.0277 310.568 40.235H314.832C314.368 42.4217 313.288 44.1847 311.593 45.524C309.899 46.836 307.794 47.492 305.279 47.492ZM326.478 47.492C324.51 47.492 322.76 47.041 321.23 46.139C319.699 45.237 318.496 43.9797 317.622 42.367C316.774 40.7543 316.351 38.882 316.351 36.75C316.351 34.5633 316.774 32.6637 317.622 31.051C318.496 29.411 319.699 28.14 321.23 27.238C322.76 26.3087 324.537 25.844 326.56 25.844C328.582 25.844 330.318 26.295 331.767 27.197C333.215 28.099 334.336 29.3017 335.129 30.805C335.921 32.281 336.318 33.921 336.318 35.725C336.318 35.9983 336.304 36.299 336.277 36.627C336.277 36.9277 336.263 37.2693 336.236 37.652H319.344V34.741H332.218C332.136 33.019 331.562 31.6797 330.496 30.723C329.43 29.739 328.104 29.247 326.519 29.247C325.398 29.247 324.373 29.5067 323.444 30.026C322.514 30.518 321.763 31.256 321.189 32.24C320.642 33.1967 320.369 34.413 320.369 35.889V37.037C320.369 38.5677 320.642 39.866 321.189 40.932C321.763 41.9707 322.514 42.7633 323.444 43.31C324.373 43.8293 325.384 44.089 326.478 44.089C327.79 44.089 328.869 43.802 329.717 43.228C330.564 42.654 331.193 41.875 331.603 40.891H335.703C335.347 42.1483 334.746 43.2827 333.899 44.294C333.051 45.278 331.999 46.057 330.742 46.631C329.512 47.205 328.09 47.492 326.478 47.492ZM338.373 47V26.336H342.063L342.35 29.247C343.006 28.181 343.881 27.3473 344.974 26.746C346.067 26.1447 347.297 25.844 348.664 25.844C349.703 25.844 350.646 25.9943 351.493 26.295C352.34 26.5683 353.092 26.992 353.748 27.566C354.404 28.14 354.937 28.8507 355.347 29.698C356.085 28.4953 357.069 27.5523 358.299 26.869C359.556 26.1857 360.882 25.844 362.276 25.844C363.943 25.844 365.378 26.1857 366.581 26.869C367.784 27.525 368.699 28.5227 369.328 29.862C369.957 31.174 370.271 32.814 370.271 34.782V47H366.212V35.192C366.212 33.2787 365.816 31.83 365.023 30.846C364.258 29.862 363.123 29.37 361.62 29.37C360.609 29.37 359.707 29.6297 358.914 30.149C358.121 30.6683 357.493 31.42 357.028 32.404C356.591 33.388 356.372 34.5907 356.372 36.012V47H352.272V35.192C352.272 33.2787 351.876 31.83 351.083 30.846C350.318 29.862 349.183 29.37 347.68 29.37C346.723 29.37 345.849 29.6297 345.056 30.149C344.263 30.6683 343.635 31.42 343.17 32.404C342.705 33.388 342.473 34.5907 342.473 36.012V47H338.373ZM382.417 47.492C380.449 47.492 378.7 47.041 377.169 46.139C375.639 45.237 374.436 43.9797 373.561 42.367C372.714 40.7543 372.29 38.882 372.29 36.75C372.29 34.5633 372.714 32.6637 373.561 31.051C374.436 29.411 375.639 28.14 377.169 27.238C378.7 26.3087 380.477 25.844 382.499 25.844C384.522 25.844 386.258 26.295 387.706 27.197C389.155 28.099 390.276 29.3017 391.068 30.805C391.861 32.281 392.257 33.921 392.257 35.725C392.257 35.9983 392.244 36.299 392.216 36.627C392.216 36.9277 392.203 37.2693 392.175 37.652H375.283V34.741H388.157C388.075 33.019 387.501 31.6797 386.435 30.723C385.369 29.739 384.044 29.247 382.458 29.247C381.338 29.247 380.313 29.5067 379.383 30.026C378.454 30.518 377.702 31.256 377.128 32.24C376.582 33.1967 376.308 34.413 376.308 35.889V37.037C376.308 38.5677 376.582 39.866 377.128 40.932C377.702 41.9707 378.454 42.7633 379.383 43.31C380.313 43.8293 381.324 44.089 382.417 44.089C383.729 44.089 384.809 43.802 385.656 43.228C386.504 42.654 387.132 41.875 387.542 40.891H391.642C391.287 42.1483 390.686 43.2827 389.838 44.294C388.991 45.278 387.939 46.057 386.681 46.631C385.451 47.205 384.03 47.492 382.417 47.492ZM394.312 47V26.336H398.002L398.248 29.862C398.904 28.632 399.834 27.6617 401.036 26.951C402.239 26.213 403.619 25.844 405.177 25.844C406.817 25.844 408.225 26.172 409.4 26.828C410.576 27.484 411.491 28.4817 412.147 29.821C412.803 31.133 413.131 32.7867 413.131 34.782V47H409.031V35.192C409.031 33.2787 408.608 31.83 407.76 30.846C406.913 29.862 405.683 29.37 404.07 29.37C403.004 29.37 402.048 29.6297 401.2 30.149C400.353 30.641 399.67 31.379 399.15 32.363C398.658 33.347 398.412 34.5497 398.412 35.971V47H394.312ZM424.363 47C423.078 47 421.958 46.795 421.001 46.385C420.044 45.975 419.306 45.2917 418.787 44.335C418.268 43.3783 418.008 42.08 418.008 40.44V29.821H414.441V26.336H418.008L418.5 21.17H422.108V26.336H427.971V29.821H422.108V40.481C422.108 41.6563 422.354 42.4627 422.846 42.9C423.338 43.31 424.185 43.515 425.388 43.515H427.766V47H424.363Z" fill="#0A0A0A"/>
</svg>
