<svg width="32" height="32" viewBox="0 0 32 32" fill="none" xmlns="http://www.w3.org/2000/svg">
<path d="M9.65771 9.79362C9.65771 9.59117 9.73815 9.39701 9.88133 9.25385C10.0245 9.1107 10.2187 9.03027 10.4212 9.03027H15.0021C15.2045 9.03027 15.3987 9.1107 15.5419 9.25385C15.6851 9.39701 15.7655 9.59117 15.7655 9.79362C15.7655 9.99607 15.6851 10.1902 15.5419 10.3334C15.3987 10.4765 15.2045 10.557 15.0021 10.557H10.4212C10.2187 10.557 10.0245 10.4765 9.88133 10.3334C9.73815 10.1902 9.65771 9.99607 9.65771 9.79362Z" fill="#8B919E"/>
<path d="M10.4212 12.084C10.2187 12.084 10.0245 12.1644 9.88133 12.3076C9.73815 12.4507 9.65771 12.6449 9.65771 12.8473C9.65771 13.0498 9.73815 13.2439 9.88133 13.3871C10.0245 13.5303 10.2187 13.6107 10.4212 13.6107H13.4751C13.6776 13.6107 13.8718 13.5303 14.015 13.3871C14.1581 13.2439 14.2386 13.0498 14.2386 12.8473C14.2386 12.6449 14.1581 12.4507 14.015 12.3076C13.8718 12.1644 13.6776 12.084 13.4751 12.084H10.4212Z" fill="#8B919E"/>
<path d="M12.7117 2.16016C11.1222 2.15962 9.55992 2.57255 8.17835 3.35838C6.79679 4.14421 5.64347 5.27589 4.83172 6.64223C4.01998 8.00857 3.57773 9.56256 3.54843 11.1515C3.51914 12.7404 3.9038 14.3097 4.66464 15.705L3.5805 19.5065C3.54235 19.64 3.54133 19.7813 3.57756 19.9153C3.61378 20.0494 3.68588 20.171 3.78608 20.2671C3.88628 20.3632 4.0108 20.4301 4.14624 20.4607C4.28167 20.4914 4.42289 20.4845 4.55469 20.4408L8.12471 19.2515C9.34148 19.9545 10.7037 20.3682 12.106 20.4607C13.5082 20.5531 14.913 20.3217 16.2115 19.7845C17.51 19.2473 18.6676 18.4186 19.5946 17.3626C20.5215 16.3065 21.1931 15.0514 21.5573 13.6943C21.9215 12.3373 21.9686 10.9146 21.6949 9.53644C21.4212 8.15826 20.8341 6.86151 19.979 5.74649C19.1239 4.63147 18.0237 3.72808 16.7635 3.1062C15.5034 2.48432 14.117 2.16063 12.7117 2.16016ZM5.07691 11.3203C5.07716 9.62662 5.64079 7.98109 6.67906 6.6428C7.71733 5.30452 9.17128 4.34948 10.812 3.92806C12.4527 3.50663 14.187 3.64274 15.7419 4.31497C17.2967 4.98719 18.5838 6.15735 19.4005 7.64122C20.2172 9.1251 20.5172 10.8384 20.2531 12.5114C19.989 14.1844 19.176 15.7221 17.9419 16.8824C16.7079 18.0427 15.1229 18.7597 13.4365 18.9205C11.7502 19.0813 10.0583 18.6768 8.62708 17.7706C8.53135 17.7099 8.4233 17.6713 8.31079 17.6576C8.19828 17.6439 8.08412 17.6554 7.9766 17.6912L5.44491 18.5355L6.22365 15.8164C6.25203 15.7163 6.25962 15.6114 6.24597 15.5082C6.23231 15.4051 6.1977 15.3058 6.14425 15.2165C5.44317 14.0379 5.07434 12.6916 5.07691 11.3203Z" fill="#8B919E"/>
<path d="M19.2409 23.4533L15.5732 21.6212C16.245 21.4335 16.8909 21.1831 17.5017 20.8762L19.5829 21.9174L26.4542 18.4824V17.4274C26.4542 17.0225 26.2933 16.6342 26.007 16.3479C25.7206 16.0616 25.3322 15.9007 24.9273 15.9007H22.3712C22.6048 15.4122 22.8002 14.9007 22.9575 14.374H24.9273C25.7372 14.374 26.514 14.6957 27.0867 15.2683C27.6594 15.841 27.9812 16.6176 27.9812 17.4274V25.0609C27.9812 25.8707 27.6594 26.6473 27.0867 27.22C26.514 27.7926 25.7372 28.1143 24.9273 28.1143H14.2386C13.4287 28.1143 12.6519 27.7926 12.0792 27.22C11.5064 26.6473 11.1847 25.8707 11.1847 25.0609V21.9006C11.684 21.9709 12.1925 22.0075 12.7116 22.0075V25.0609C12.7116 25.4658 12.8725 25.8541 13.1589 26.1404C13.4452 26.4267 13.8336 26.5876 14.2386 26.5876H24.9273C25.3322 26.5876 25.7206 26.4267 26.007 26.1404C26.2933 25.8541 26.4542 25.4658 26.4542 25.0609V20.1892L19.925 23.4533C19.8188 23.5065 19.7017 23.5342 19.5829 23.5342C19.4642 23.5342 19.3471 23.5065 19.2409 23.4533Z" fill="#8B919E"/>
</svg>
