<svg width="29" height="29" viewBox="0 0 29 29" fill="none" xmlns="http://www.w3.org/2000/svg">
<path d="M14.2961 2.97656C18.7037 2.97656 22.336 6.24433 22.6719 10.4707L22.6915 10.7828L22.6971 11.0963L22.6957 16.1288L23.9904 19.2384C24.0226 19.314 24.0464 19.3924 24.0646 19.4721L24.087 19.5925L24.0982 19.7772C24.0967 20.086 23.993 20.3857 23.8034 20.6294C23.6138 20.8732 23.3488 21.0474 23.0498 21.1249L22.8875 21.1627L22.6985 21.1767L17.7981 21.1753L17.7911 21.4006C17.7349 22.2884 17.3425 23.1215 16.6937 23.7304C16.045 24.3392 15.1886 24.6781 14.2989 24.6781C13.4091 24.6781 12.5527 24.3392 11.904 23.7304C11.2553 23.1215 10.8628 22.2884 10.8066 21.4006L10.7996 21.1753H5.89923C5.77635 21.1755 5.65399 21.1595 5.5353 21.1277L5.36174 21.0689C5.07919 20.9498 4.84357 20.7413 4.69108 20.4753C4.5386 20.2093 4.47769 19.9006 4.51771 19.5967L4.54711 19.4175L4.6073 19.2384L5.89923 16.133L5.90062 11.0837L5.90622 10.7688C6.07839 6.40667 9.77921 2.97656 14.2961 2.97656ZM16.3984 21.1753H12.1993L12.2091 21.3726C12.2562 21.8572 12.4703 22.3104 12.8148 22.6545C13.1592 22.9986 13.6126 23.2124 14.0973 23.2591L14.2989 23.2689C14.8206 23.2689 15.3236 23.0747 15.7099 22.7241C16.0962 22.3736 16.3382 21.8918 16.3886 21.3726L16.3984 21.1753ZM14.2961 4.37603C10.6246 4.37603 7.61947 7.06862 7.32553 10.5127L7.30593 10.8094L7.30033 11.0963V16.2715L7.24714 16.5402L5.89923 19.7772L22.6369 19.78L22.6999 19.7772L21.3506 16.5402L21.2974 16.2715V11.1103L21.2918 10.8248C21.1448 7.22396 18.0711 4.37603 14.2961 4.37603Z" fill="#8B919E"/>
</svg>
