<svg width="9" height="9" viewBox="0 0 9 9" fill="none" xmlns="http://www.w3.org/2000/svg">
<path d="M7.9619 9H7.90308C1.10366 8.60885 0.138246 2.86962 0.00329584 1.11808C-0.00757795 0.981893 0.00851691 0.844901 0.0506582 0.71495C0.0927994 0.584999 0.160159 0.464644 0.248877 0.36078C0.337595 0.256915 0.445928 0.171584 0.567669 0.109675C0.689409 0.0477661 0.822165 0.010496 0.958329 3.24551e-07H2.86493C3.00354 -0.000133901 3.13899 0.0413691 3.25374 0.119133C3.36849 0.196897 3.45726 0.30734 3.50854 0.436154L4.0345 1.73077C4.08514 1.85661 4.09771 1.99457 4.07064 2.12749C4.04358 2.26042 3.97807 2.38246 3.88225 2.47846L3.14522 3.22269C3.26034 3.87718 3.57366 4.4805 4.04277 4.95102C4.51189 5.42155 5.11415 5.73657 5.7681 5.85346L6.51897 5.10923C6.61638 5.01444 6.73953 4.95043 6.87306 4.92519C7.00659 4.89996 7.14459 4.9146 7.26985 4.96731L8.57437 5.49C8.7012 5.54292 8.8094 5.63242 8.8852 5.74708C8.961 5.86174 9.00095 5.99638 8.99998 6.13385V7.96154C8.99998 8.23696 8.89061 8.50109 8.69594 8.69584C8.50126 8.89059 8.23722 9 7.9619 9ZM1.04138 0.692308C0.949603 0.692308 0.86159 0.728778 0.796698 0.793694C0.731805 0.858611 0.695349 0.946656 0.695349 1.03846V1.06615C0.854521 3.11539 1.8753 7.96154 7.94114 8.30769C7.9866 8.3105 8.03217 8.30431 8.07523 8.28946C8.11829 8.27462 8.158 8.25142 8.19207 8.22119C8.22615 8.19096 8.25393 8.15429 8.27381 8.1133C8.29369 8.07231 8.30528 8.02779 8.30793 7.98231V6.13385L7.00341 5.61115L6.01031 6.59769L5.84422 6.57692C2.83379 6.19962 2.42548 3.18808 2.42548 3.15692L2.40472 2.99077L3.38743 1.99731L2.86839 0.692308H1.04138Z" fill="white"/>
</svg>
