<svg width="15" height="15" viewBox="0 0 15 15" fill="none" xmlns="http://www.w3.org/2000/svg">
<path d="M0.5 7.84912C0.5 9.23359 0.910543 10.587 1.67971 11.7381C2.44888 12.8893 3.54213 13.7865 4.82122 14.3163C6.1003 14.8461 7.50776 14.9847 8.86563 14.7146C10.2235 14.4445 11.4708 13.7778 12.4497 12.7989C13.4287 11.8199 14.0954 10.5726 14.3655 9.21475C14.6356 7.85688 14.497 6.44942 13.9672 5.17034C13.4373 3.89125 12.5401 2.798 11.389 2.02883C10.2378 1.25966 8.88447 0.849121 7.5 0.849121C5.64458 0.852679 3.86617 1.59132 2.55418 2.9033C1.2422 4.21529 0.503557 5.9937 0.5 7.84912ZM7.05577 5.02893L9.74807 7.452C9.80316 7.50245 9.84716 7.56381 9.87725 7.63218C9.90735 7.70054 9.92289 7.77442 9.92289 7.84912C9.92289 7.92382 9.90735 7.9977 9.87725 8.06606C9.84716 8.13443 9.80316 8.19579 9.74807 8.24623L7.05577 10.6693C6.94988 10.7621 6.81186 10.8097 6.67128 10.802C6.5307 10.7942 6.39875 10.7317 6.3037 10.6279C6.20864 10.524 6.15804 10.3871 6.16274 10.2463C6.16745 10.1056 6.22707 9.97236 6.32884 9.87508L8.57692 7.84912L6.32884 5.82316C6.27492 5.77591 6.23098 5.71837 6.19959 5.65391C6.1682 5.58946 6.15 5.51938 6.14606 5.4478C6.14212 5.37621 6.15251 5.30456 6.17662 5.23705C6.20074 5.16953 6.23809 5.10751 6.2865 5.05463C6.3349 5.00174 6.39338 4.95905 6.4585 4.92907C6.52362 4.89908 6.59408 4.8824 6.66573 4.88001C6.73738 4.87762 6.80879 4.88956 6.87577 4.91513C6.94275 4.9407 7.00394 4.97939 7.05577 5.02893Z" fill="white"/>
</svg>
