<svg width="135" height="31" viewBox="0 0 135 31" fill="none" xmlns="http://www.w3.org/2000/svg">
<g clip-path="url(#clip0_12_402)">
<mask id="mask0_12_402" style="mask-type:luminance" maskUnits="userSpaceOnUse" x="0" y="0" width="135" height="31">
<path d="M135 0H0V31H135V0Z" fill="white"/>
</mask>
<g mask="url(#mask0_12_402)">
<path d="M0 0.16626H7.93246V2.00496H0V0.16626ZM4.81865 13.5863H3.12939V7.55435H0.0155692V5.7406H7.93246V7.55435H4.81865V13.5863Z" fill="#D86123"/>
<path d="M19.6949 13.5863L23.634 0.16626H25.4244L29.3634 13.5613H27.5729L26.6155 10.3332H22.4663L21.4855 13.5863H19.6949ZM22.9178 8.59434H26.1406L24.5292 3.15311L22.9178 8.59434Z" fill="#D86123"/>
<path d="M46.4583 11.9556C46.7817 11.9579 47.1021 11.8899 47.4002 11.756C47.6922 11.6282 47.9571 11.4387 48.1786 11.1985C48.3993 10.9582 48.5762 10.6761 48.7002 10.3665C48.826 10.051 48.8896 9.71109 48.887 9.36818V8.60272H47.4469V6.82225H52.0087V8.64429H50.5763V9.40975C50.5821 10.0057 50.4762 10.597 50.2649 11.1486C50.0623 11.6708 49.7662 12.1456 49.393 12.5463C49.0232 12.9479 48.5809 13.2649 48.093 13.4781C47.5747 13.7068 47.019 13.8228 46.4583 13.8193C45.9 13.8235 45.3467 13.7075 44.8313 13.4781C44.3415 13.2662 43.8963 12.9515 43.522 12.5529C43.1477 12.1543 42.8518 11.6797 42.6516 11.157C42.444 10.6041 42.3383 10.0137 42.3402 9.4181V4.42611C42.3355 3.82211 42.4412 3.22292 42.6516 2.66229C42.8542 2.14007 43.1504 1.66525 43.5235 1.26455C43.9102 0.856972 44.3687 0.535358 44.8725 0.318295C45.3762 0.10123 45.9152 -0.00697828 46.4583 -7.80621e-05C47.0507 -0.024641 47.6395 0.109795 48.1708 0.390958C48.5847 0.609272 48.9674 0.889411 49.3074 1.22295C49.64 1.59189 49.9183 2.01268 50.1326 2.47094L48.7002 3.44437C48.5865 3.13878 48.4231 2.8571 48.2176 2.61238C48.019 2.38236 47.7846 2.19093 47.5248 2.04662C47.1924 1.87849 46.8252 1.80403 46.4583 1.8303C46.1349 1.82807 45.8144 1.896 45.5163 2.02998C45.2258 2.16077 44.9616 2.35001 44.7379 2.58742C44.5122 2.82333 44.3347 3.1066 44.2163 3.41941C44.0895 3.73752 44.0259 4.08034 44.0295 4.42611V9.4181C44.0269 9.76101 44.0905 10.1009 44.2163 10.4165C44.3347 10.7292 44.5122 11.0125 44.7379 11.2485C44.9595 11.4886 45.2242 11.6782 45.5163 11.8059C45.8177 11.9228 46.138 11.9738 46.4583 11.9556Z" fill="#D86123"/>
<path d="M72.6923 13.5863H65.3514V0.16626H67.0485V11.7642H70.9875V10.1501H72.6923V13.5863Z" fill="#D86123"/>
<path d="M87.1952 11.7642V2.00496H84.9532V0.16626H91.1336V2.00496H88.8917V11.7642H91.1336V13.5863H84.9532V11.7642H87.1952Z" fill="#D86123"/>
<path d="M112.526 0.16626V13.5613H110.829L106.353 4.20974V13.5863H104.648V2.00496H103.216V0.16626H106.329L110.805 9.54278V0.16626H112.526Z" fill="#D86123"/>
<path d="M135 13.5863H127.48V0.16626H135V2.00496H129.177V5.93196H133.389V7.7457H129.177V11.7642H135V13.5863Z" fill="#D86123"/>
<path d="M21.0106 26.6487H0.147949V27.8966H21.0106V26.6487Z" fill="#D86123"/>
<path d="M134.821 26.6487H113.958V27.8966H134.821V26.6487Z" fill="#D86123"/>
<path d="M23.2603 23.8447H24.5681V30.8417H23.2603V23.8447Z" fill="#D86123"/>
<path d="M32.4305 23.8447H33.7227V30.8417H32.4305L29.4568 25.958V30.8667H28.1724V23.8447H29.5346L32.4383 28.6037L32.4305 23.8447Z" fill="#D86123"/>
<path d="M41.1336 23.8447V25.126H38.0198V26.79H39.927V28.0712H38.0354V30.8667H36.7354V23.8447H41.1336Z" fill="#D86123"/>
<path d="M50.7476 27.3642C50.7445 28.0802 50.5432 28.7793 50.1691 29.3732C49.795 29.9672 49.2648 30.4296 48.6452 30.7021C48.0256 30.9745 47.3445 31.045 46.6876 30.9045C46.0306 30.764 45.4273 30.4188 44.9536 29.9125C44.4798 29.4063 44.1569 28.7614 44.0254 28.0593C43.894 27.3572 43.9599 26.6292 44.2148 25.9671C44.4698 25.3049 44.9025 24.7382 45.4581 24.3383C46.0139 23.9385 46.668 23.7234 47.3379 23.7201C47.7865 23.7167 48.2313 23.8088 48.6464 23.9907C49.0615 24.1727 49.4386 24.4409 49.7558 24.78C50.0731 25.119 50.3241 25.5221 50.4944 25.9657C50.6646 26.4093 50.7507 26.8847 50.7476 27.3642ZM49.5254 27.3642C49.5264 27.0572 49.4705 26.7531 49.3608 26.4694C49.2512 26.1858 49.09 25.9281 48.8865 25.7115C48.6831 25.4948 48.4415 25.3235 48.1757 25.2073C47.9098 25.0911 47.6251 25.0324 47.3379 25.0346C47.0525 25.0335 46.7697 25.0931 46.5061 25.2101C46.2425 25.3271 46.0033 25.4991 45.8025 25.716C45.6018 25.9328 45.4435 26.1903 45.3369 26.4733C45.2303 26.7563 45.1775 27.0592 45.1816 27.3642C45.1774 27.6677 45.2304 27.969 45.3373 28.2502C45.4443 28.5314 45.6031 28.7867 45.8042 29.0009C46.0055 29.2152 46.2449 29.384 46.5084 29.4973C46.7719 29.6106 47.054 29.6661 47.3379 29.6605C47.6236 29.6671 47.9077 29.6126 48.1734 29.5001C48.439 29.3876 48.6809 29.2194 48.8847 29.0054C49.0886 28.7913 49.2503 28.5359 49.3603 28.254C49.4704 27.9721 49.5265 27.6696 49.5254 27.3642Z" fill="#D86123"/>
<path d="M58.5322 23.8447V25.0594H56.6016V30.8417H55.2782V25.0594H53.3555V23.8447H58.5322Z" fill="#D86123"/>
<path d="M66.3168 23.8447V25.126H62.7904V26.5819H65.1258V27.8549H62.7904V29.5855H66.3869V30.8584H61.5293V23.8447H66.3168Z" fill="#D86123"/>
<path d="M75.2767 29.9517C74.8018 30.4499 74.2014 30.7895 73.5489 30.929C72.8964 31.0684 72.22 31.0017 71.6023 30.737C70.9847 30.4722 70.4526 30.0209 70.0711 29.4382C69.6895 28.8555 69.4751 28.1666 69.4539 27.4557C69.4574 26.4958 69.8089 25.5746 70.4346 24.8857C71.0602 24.1969 71.9113 23.794 72.809 23.7617C73.7409 23.7825 74.6276 24.195 75.2767 24.9098L74.4205 25.7418C73.9706 25.3257 73.4033 25.0826 72.809 25.0513C72.2267 25.0751 71.6759 25.3403 71.2734 25.7906C70.8709 26.2411 70.6483 26.8413 70.6527 27.4641C70.6517 27.767 70.7068 28.0672 70.8148 28.3473C70.9228 28.6274 71.0816 28.8819 71.282 29.0962C71.4825 29.3104 71.7205 29.4801 71.9827 29.5955C72.2447 29.7109 72.5255 29.7698 72.809 29.7687C73.1069 29.7778 73.4033 29.7221 73.6804 29.6047C73.9575 29.4874 74.2092 29.3111 74.4205 29.0865L75.2767 29.9517Z" fill="#D86123"/>
<path d="M82.1659 27.8965H79.597V30.8417H78.2665V23.8447H79.597V26.6652H82.1659V23.8447H83.4815V30.8417H82.1659V27.8965Z" fill="#D86123"/>
<path d="M92.006 23.8447H93.3138V29.5688H96.1707V30.8417H92.006V23.8447Z" fill="#D86123"/>
<path d="M99.012 23.8447H100.32V29.5688H103.177V30.8417H99.012V23.8447Z" fill="#D86123"/>
<path d="M105.971 23.8447H108.626C109.174 23.847 109.698 24.081 110.085 24.4959C110.471 24.9106 110.689 25.4723 110.689 26.0578C110.689 26.6485 110.471 27.2153 110.081 27.6345C109.692 28.0537 109.163 28.2915 108.61 28.2958H107.232V30.8417H105.955V23.8447H105.971ZM107.248 25.0594V27.0729H108.626C108.875 27.0729 109.115 26.9667 109.292 26.778C109.469 26.5892 109.568 26.3332 109.568 26.0662C109.568 25.7992 109.469 25.543 109.292 25.3543C109.115 25.1655 108.875 25.0594 108.626 25.0594H107.248Z" fill="#D86123"/>
</g>
</g>
<defs>
<clipPath id="clip0_12_402">
<rect width="135" height="31" fill="white"/>
</clipPath>
</defs>
</svg>
